<svg xmlns="http://www.w3.org/2000/svg" viewBox="0 0 552.45 228.31"><defs><style>.cls-1{fill:#92c6ed;}.cls-2{fill:#231f20;}.cls-3{fill:#268edc;}.cls-4{fill:#fff;}.cls-5{fill:#f67a66;}</style></defs><title>Asset 2</title><g id="Layer_2" data-name="Layer 2"><g id="ARTWORK"><path class="cls-1" d="M116.48,3.2l-74.79,0-.12,38.91c-.07,21.4-.18,67.44-.25,102.31l-.12,63.39,21.32.14c11.74.08,74.1.12,138.6.08s118.7,0,120.45.1l3.18.16.13-41.42c.07-22.79.22-55,.32-71.58.29-45.43.3-91.23,0-91.57s-.92-.33-2.76-.44c-2.65-.16-79.27-.21-206-.13Zm139.08,1h68.71l-.07,8.1c0,4.46-.11,8.15-.16,8.2-.2.19-55.31.33-167.3.45l-114,.11V4l72,.12c39.61.07,103,.13,140.74.14ZM74,39.71c7.64.06,21.24.11,30.23.11h16.35l-.12,14.88c-.07,8.2-.18,19.68-.25,25.54l-.12,10.66-9.5.12c-8.44.11-20.26.29-43.58.66-4,.07-7.31.09-7.36.06S59.55,80,59.55,65.59c0-23.09,0-26.09.28-26s6.52.1,14.16.16Zm231,.23.49.13-.14,14.76c-.08,8.12-.19,19.61-.26,25.54L305,91.15l-11.68.09-30.54.28c-10.38.1-26.7.24-36.3.31L209,92l-.14-.53a10.23,10.23,0,0,1,0-2.08c0-.86.19-9.45.29-19.08.22-20.3.37-29.91.45-30s16.29-.12,36.14-.21c55.43-.25,58.71-.25,59.26-.12ZM120.44,163.77s.07,5.33.13,11.82l.12,11.8-1,.1c-3,.29-22.22.71-39.93.88-11.11.1-20.23.16-20.27.12s0-4.09.13-9,.21-10.54.21-12.46v-3.48l30.29.11,30.32.14Z"/><path class="cls-1" d="M62.11,9.81A3.73,3.73,0,0,1,57,13.39c-.49-.2-.85-.25-1-.13S55,14,54.1,14.74C52.66,15.91,52.44,16,52,15.88c-.88-.31-.68-.72,1.08-2.18.92-.77,1.76-1.47,1.84-1.55s0-.56-.15-1.06A3.27,3.27,0,0,1,55.14,8a3.36,3.36,0,0,1,2-1.61,5.72,5.72,0,0,1,3,.08A3.78,3.78,0,0,1,62.11,9.81Z"/><path class="cls-2" d="M322.72,11.79l-.1-10.73L322.19,1c-.25,0-.44,0-.44.19s-.09.11-.21-.1c-.27-.45-2.08-.42-2.08,0,0,.22,1.68.65,1.93.49s.2,2,.15,8c0,4.48-.11,8.18-.17,8.23s-55.31.33-167.29.44l-114,.12V1.29l71,.13c120,.22,206.29.17,206.47-.11s.2-.48-.05-.64S254.89.54,178.61.57C52.9.6,39.93.58,39.93.3c0-.48-.74-.35-.85.15s-.24,47.65-.42,141.18l-.13,63.59,21.81.14c12,.08,70.74.09,130.55,0s113.79,0,120,.05,11.21.15,11.22.13.13-27.16.25-60.34.3-74.35.37-91.52S322.78,17.69,322.72,11.79Zm-1.41,46.09c-.07,21.4-.15,56.27-.18,77.49s-.07,45.27-.09,53.45L321,203.68l-10.58.13c-5.82.07-69.06.14-140.53.16L39.93,204l0-92.38L40,19.25l86.15-.09L266.88,19,321.43,19Z"/><path class="cls-3" d="M213.34,88.44l-3,1.56-.12-.87a5.93,5.93,0,0,1,0-1.51c.09-.49.66-37.52.69-44.61V41.35l21.39,0c11.77,0,32.41.08,45.87.14l24.48.12-3.22,1.7L288.71,49c-7.24,3.86-13.36,7.05-22,11.48-5.74,2.94-10.69,5.54-21,11-4.79,2.55-13.36,7-19,10ZM303.82,42.5c-.1,0-1.42.65-2.95,1.45s-6.64,3.44-11.39,5.87-13.23,6.85-18.86,9.81c-11.54,6.09-13.64,7.18-25.08,13-6.77,3.46-19.17,9.92-31.5,16.4l-2.48,1.31H214c5.29,0,62.61-.58,74.86-.75,7.22-.1,13.33-.17,13.59-.15,1,.08,1,.17,1.15-16.56.09-8.56.23-18.9.31-23C303.93,45.67,303.92,42.5,303.82,42.5Z"/><path class="cls-3" d="M146.69,43.22c4.3-.09,18-.24,30.4-.32s22.74-.17,22.91-.18a.7.7,0,0,1,.54.24c.24.3.08.88-.24.87-.13,0-5.88,0-12.77.1-19.55.18-48.52.19-48.81,0C138,43.5,139.2,43.39,146.69,43.22Zm-7.81,10.09c.21.07,8.56,0,18.53-.08S181.15,53,188,53s12.48,0,12.59-.11c.49-.31,0-1.34-.54-1.21l-1.86.17c-.94.08-14.55.25-30.25.38s-28.72.31-29,.4C138.4,52.87,138.37,53.15,138.88,53.31Zm59.35,7.26c-1.09,0-2.21,0-2.47,0-.86.11-20.66.45-38.39.66-9.59.11-17.62.24-17.86.3-.52.11-.57.57-.08.73.2.06,5,0,10.69-.08s19.26-.25,30.19-.32c21.12-.13,20.67-.1,20.12-1C200.26,60.65,199.86,60.59,198.23,60.57Zm-.78,9.16c-1.51,0-5.15.07-8.1.09-21,.17-48.28.51-49.38.6-1.49.14-1.87.51-.75.73.4.08,11.89,0,25.52-.1,30.75-.31,35.28-.38,35.5-.6a.48.48,0,0,0,.06-.47C200.2,69.73,199.78,69.69,197.45,69.73Zm-33,9.41c-.21,0-6,.06-12.83.15s-12.64.21-12.89.26c-.49.12-.56.57-.11.74.18.06,5,0,10.78-.08S161,80,162.35,80c2.36,0,2.49-.06,2.49-.43A.37.37,0,0,0,164.46,79.14Z"/><path class="cls-3" d="M121.83,188.66a1.93,1.93,0,0,1-.1.72c-.12.21-1,.21-1.1,0-.23-.38-18.55-.39-44.61,0-16.64.23-17.55.21-17.77-.46-.15-.45.55-25.64.73-26.29.12-.4.65-.62.65-.27,0,.09,6,.1,13.27,0,19.32-.17,48.34-.14,48.52.06s.21,5.88.27,12.91S121.82,188.35,121.83,188.66Z"/><path class="cls-4" d="M1.59,39.3c-.46.12-.51.25-.63,1.53C.74,43.14.41,57.3.19,73.33c-.27,19.91-.27,20.4.08,20.75s15.36.55,42.55.56c17.65,0,18.1,0,18.53-.37s.46-.61.59-4c.08-1.95.19-4,.26-4.52l.12-1,.88.06.89.06.68,2c.86,2.51,3.65,13.8,4.35,17.6a219.16,219.16,0,0,0,5.3,21.78c2.44,8.6,4.14,13.43,6.14,17.41a19.76,19.76,0,0,0,4.36,6.16,11.3,11.3,0,0,0,5.72,3.39,51.79,51.79,0,0,0,9.12.81l1.39,0,.34,1c.66,1.83.57,1.81,6.54,2a157.64,157.64,0,0,1,21.27,2.14,65.29,65.29,0,0,1,8.13,2.28l1.27.46L139,163c.15.58.58,2,.95,3.09,2.4,7.15,3.49,12.19,5.58,25.76,2.43,15.79,2.92,19.93,3,26l.11,5.21h.72c30.93,0,85.83,0,85.87-.06s-2.31-10.7-3.57-15.95c-.5-2.08-1.63-6.83-2.52-10.55s-2.28-9.43-3.1-12.7-1.51-6-1.53-6.13a6.38,6.38,0,0,1,1.73-1.28,27.9,27.9,0,0,0,5.29-4.18l1.31-1.27,1.65.72a20.3,20.3,0,0,0,6.51,1.47c2.32,0,8.14-2.38,12-4.93a67,67,0,0,0,11.9-9.69c2.76-2.69,14-14.51,14.93-15.66a6.82,6.82,0,0,1,3.49-1.73,24.47,24.47,0,0,1,3.42-.22H289v27.75l15.08,0c22.79-.06,54.62-.44,54.84-.66s.18-5.08.15-13.08c0-10,0-14.43.3-19.84.28-5.74.34-9.89.29-23.58,0-10.24-.14-16.68-.25-16.8s-12.12-.21-35.17-.21h-35l-.12.58c-.07.33-.12,5-.12,10.28v9.69l-.94.39c-3.24,1.36-12.25,9.26-14.11,12.38a6.27,6.27,0,0,1-1.62,1.58c-1.12.75-6.86,4.18-15.06,9-6,3.49-10.15,6.3-12.11,8.16a14.66,14.66,0,0,1-1.87,1.59c-.27,0-.44-.52-.44-1.3,0-.6-.2-.84-1.73-2.14-7.56-6.39-29.55-21.78-34.53-24.18l-2-1-8.66.26-9.47.27c-.78,0-.85,0-1.16-.81a8.37,8.37,0,0,1-.41-1.34c0-.29-.22-1-.4-1.68-.93-3.38-.93-6.34,0-8.14,1.25-2.42,4.32-6.38,8-10.3a29.75,29.75,0,0,0,5.4-7.26c1-2,1.39-3.64,1.19-4.72s-1.29-2.14-2.08-2.14h-.6l.68-1.74c.88-2.2,1.17-4,.87-5.09a8.17,8.17,0,0,0-4-4.44,55.28,55.28,0,0,0-6.12-2.3,9.37,9.37,0,0,1-5.7-3.78,16.06,16.06,0,0,1-1.36-4.14c-1.49-6.2-2.1-7.58-4.3-9.66A11.83,11.83,0,0,0,168,48.91a8.63,8.63,0,0,0-3.92.44,14,14,0,0,0-5.8,3.71,12.19,12.19,0,0,0-3.09,5.15,9.77,9.77,0,0,0-.64,4.18A14.86,14.86,0,0,0,156.37,70l1,1.91-1,1.67a27.35,27.35,0,0,0-3,6.72c-1.28,3.94-2.45,5.37-6.34,7.71-2.15,1.29-2.72,1.76-2.79,2.28-.16,1.13,1,2.42,2.93,3.32,2.2,1,2.15.86,2.17,6.82,0,5.38.22,6.89,1.07,8.56a6.31,6.31,0,0,0,2.67,2.6,9.49,9.49,0,0,0,3.92.63l.71-.09.14,1.54a39.42,39.42,0,0,1,0,4.38l-.14,2.83-1.81.12c-1,.07-6.9.26-13.15.43s-15.94.48-21.58.7-11.48.39-13,.39a10.73,10.73,0,0,0-2.74.17.28.28,0,0,0,.18.25,3.33,3.33,0,0,1,.26,1.42l.08,1.34-.6.09-1.61.2-1,.11-1.26-3.62c-4.37-12.54-12.28-30.68-17-38.85A91.6,91.6,0,0,0,72.19,67.36c-1.37-1.47-3.68-4.07-5.12-5.76s-3.16-3.69-3.82-4.41l-1.19-1.32V53.42c0-4.58-.4-13.53-.61-13.93s-.7-.37-29.79-.35c-16.27,0-29.8.08-30.07.16Z"/><path class="cls-5" d="M4.13,59.31C4,59.42,4,55.65,4,50.61c.06-8.61.08-8.9.46-9.21a1.74,1.74,0,0,1,1.39-.2c.55.06,3.8.11,7.23.11h6.22l-2.94,3.32c-3.36,3.8-7,8.14-10,11.89C5.23,58,4.23,59.2,4.13,59.31ZM23,45.39l4-3.53.61-.53H21.5L19,44.13C14.74,48.88,8.52,56.45,5.11,61,4.11,62.35,4,62.64,4,63.45v.91L6.6,61.54C10.77,57,19.28,48.64,23,45.39Zm-19,24.72c.09,0,1.95-2,4.15-4.26,7.7-8.07,19.21-19,25.23-23.89l.79-.65H29.87L28,42.93c-6.61,5.8-14.27,13.25-20.48,20L4,66.67l-.12,1.75A5,5,0,0,0,3.94,70.11Zm-.06,4L5.27,73c.76-.61,2.29-1.94,3.38-3,8.69-8,19.14-17,29.6-25.47a45.88,45.88,0,0,0,3.56-3l-3.05-.13-2.92-.1-2.66,2.3C26.6,49.3,16.23,59.23,9.52,66.29c-6,6.31-5.79,6-5.71,7ZM32.54,55.44c-.37.36-.36.37.3.47a37.86,37.86,0,0,0,6.3.44c1.34-.07,1.74-.17,2.21-.55l3.52-3c3.4-2.87,6.91-5.71,11-8.89a19.13,19.13,0,0,0,2.71-2.33,73.29,73.29,0,0,0-7.4,0c-.75.06-1.26.39-4,2.53-1.72,1.35-5.64,4.36-8.68,6.67S32.75,55.24,32.54,55.44ZM43.4,56.52s1.31.21,2.85.39A46.8,46.8,0,0,1,58,60l.92.39V52.14c0-4.54,0-8.25-.06-8.25s-2.07,1.62-4.52,3.59C48.85,51.88,43.33,56.45,43.4,56.52Zm-10,6.11a10.91,10.91,0,0,0,1.47-1.16l1.14-1L34.68,60a10,10,0,0,1-1.78-.69,5.74,5.74,0,0,0-1.29-.51,4.71,4.71,0,0,1-1.35-.62,2.33,2.33,0,0,0-.61-.37c-.08,0-1.38,1-2.91,2.29s-3,2.53-3.27,2.81c-.43.44-.44.49-.1.39a42.94,42.94,0,0,1,7-.53A19.72,19.72,0,0,0,33.43,62.63ZM38.15,61a12.21,12.21,0,0,0-.95.77l-.88.77,2.29.11a53.79,53.79,0,0,0,5.75.21,13.52,13.52,0,0,0-3.82-1.28C39.26,61.26,38.18,61,38.15,61ZM24.7,70.66l2.15-2-.6-.62c-.65-.68-1-1.54-.88-2,.08-.18-.25-.36-1.07-.59-1.15-.32-2.16-1.15-1.91-1.56.06-.11.08-.18,0-.18s-1.57,1.35-3.44,3c-4,3.52-8.64,7.92-12.45,11.7l-2.72,2.7L3.69,86l-.13,4.78,1.65-1.6C9.72,84.76,20.8,74.26,24.7,70.66Zm2.61-4.86c-.48.11-.86.28-.86.4s.15.15.35.06A9.4,9.4,0,0,1,28.47,66,4.8,4.8,0,0,0,30,65.71C30.16,65.51,28.34,65.57,27.31,65.8ZM47,66.59c.52.12.85.11,1,0s-.11-.19-.79-.18l-1,0ZM59.17,85.76,59,83.12,58.11,83c-.51-.07-2.45-.21-4.32-.31a28.82,28.82,0,0,1-3.89-.37,3.14,3.14,0,0,1-1.09-.9l-.58-.72-8.1-.09c-6.78-.07-8.2-.14-8.69-.4a2.83,2.83,0,0,0-.9-.3,1.33,1.33,0,0,1-.71-.4c-.49-.5-.27-1,.6-1.49s12-3.2,14.42-3.59c1.36-.22,1.49-.29,1.89-1.09a2.9,2.9,0,0,1,.72-1c.42-.23.34-.27-2-1a39.31,39.31,0,0,0-10-2c-1.21-.11-2.38-.25-2.62-.3s-.41,0-.33.21c.25.66-1.66.91-3.07.41l-.82-.29L26,71.79C20.33,77,4.77,91.88,4.6,92.29c0,.11,4.28.13,10.74.06,5.95-.07,18.14-.17,27.12-.23s16.36-.15,16.44-.2C59.15,91.76,59.31,88.35,59.17,85.76Z"/><path class="cls-3" d="M293.76,135.34c1-.17,2-.31,2.26-.32l.53,0-.42,1c-.29.7-.51,1-.73.91s-1-.24-1.84-.42C291.5,136,291.56,135.73,293.76,135.34Zm4.36-3.64a1.65,1.65,0,0,0,.26-.48,30.48,30.48,0,0,0-5.35-.39c-.76,0-1,.06-.72.17s1.56.36,3,.61C297.75,132,297.87,132,298.12,131.7ZM292,146.83l.88-2.67c.48-1.47.86-2.69.83-2.71s-.42-.09-.88-.16l-.85-.13v5.67Zm8.46-25.1,3.2.12,2.28-3.42a110.87,110.87,0,0,1,14.38-17.79l3.79-3.84-15.62,0c-8.59,0-15.76.06-15.94.11s-.38.39-.45.83-.12,6.1-.12,12.64v11.91l.46-.12A39.18,39.18,0,0,1,300.49,121.73Zm0,4.81c.33.1.52-.1,1.14-1.15a12.73,12.73,0,0,0,.75-1.39c0-.14-.82-.14-1.89,0s-3.7.66-5.37,1.07c-2.65.65-3.09.79-3.09,1a27,27,0,0,0,4,.27C298.25,126.37,300.25,126.48,300.47,126.54Zm56.22-27.35a13,13,0,0,0-2.12.3c-7.37,1.57-17.42,8.23-25.49,16.93-6.32,6.8-10.65,12.88-11.11,15.61-.59,3.46,4.7,1.65,11.76-4,3-2.4,9-8,8-7.4-.17.1-1.1.71-2.09,1.38-1.89,1.28-3.54,2.08-4.3,2.08-1.31,0-1.87-1.4-1.16-2.87,1.1-2.27,8.58-8.37,12.6-10.27,2.09-1,3.43-.65,3.39.86s-2.31,4.54-6.82,9.15c-9.23,9.45-18.08,15.17-21.34,13.8s-.56-7,7.87-16.64c9.54-10.86,21.11-18.84,29.37-20.25a5.37,5.37,0,0,0,2-.56c0-.43-.5-.67-1.29-.62-.44,0-7.16.09-14.94.14l-14.15.1-2.28,2a104.38,104.38,0,0,0-13.34,14.6c-1.82,2.41-5.42,7.66-5.63,8.22-.08.21.21.32,1.14.44.7.09,1.48.16,1.75.17s.5.11.5.5-.1.51-.5.53l-2.32.18-1.83.15-.84,1.41c-.46.78-.86,1.47-.89,1.53a8.81,8.81,0,0,0,2.16.58c4.52.92,7.11,2.15,7.11,3.36,0,1-.58,1.3-2.75,1.24-1.07,0-3-.17-4.31-.33s-2.88-.29-3.5-.29c-1,0-1.14.05-1.35.5a3.2,3.2,0,0,0-.23.6,9.79,9.79,0,0,0,1.87.09c3.46,0,7.06,1,8.42,2.23,1.09,1,.15,1.36-2.17.76a35.72,35.72,0,0,0-7.84-.76l-1.37.06-.63,1.29a9.67,9.67,0,0,0-.58,1.34s1.07.35,2.32.73c4.6,1.35,6.94,2.54,6.94,3.5,0,.57-1.05.83-2.46.61-.67-.1-2.89-.23-4.92-.28l-3.7-.09-.84,2.67c-2.1,6.66-2.38,11.52-.84,14.54a6,6,0,0,0,2.78,2.78c1,.51,1.33.56,3.22.56a10.16,10.16,0,0,0,3.58-.47c4.28-1.33,10-5.09,16.91-11.06,7.76-6.74,23.68-22.18,29.75-28.85a86.39,86.39,0,0,0,5.94-7.14l1-1.34.08-4.21c0-2.33.12-5.54.16-7.15l.08-2.94Zm.27,18.24-1.43,1.79c-3,3.8-7.83,9-15.79,17.05-15.92,16.15-25.57,24-33.11,26.95-6.34,2.48-11.29,1.65-14-2.34l-.85-1.26v3.08c0,2.82,0,3.1.4,3.43s.91.35,10.65.23l10.26-.13,3.52-2.82a241.72,241.72,0,0,0,24.17-21.83,172.87,172.87,0,0,0,15.44-18.42l.83-1.19L357,119.7Zm-.2,21.67-1,1.69a74.5,74.5,0,0,1-22.33,23.6l-2.59,1.74,2.51-.07,2.51-.07,1.51-1.09a55.31,55.31,0,0,0,7.85-6.73,69.12,69.12,0,0,0,8.8-10.72c2.74-4.1,2.84-4.34,2.78-6.52ZM356,125.39a152.4,152.4,0,0,1-13,16.27,233.18,233.18,0,0,1-24.92,22.68l-2.27,1.79,6.21.05,6.21,0,1.51-1c7.14-4.81,16.18-12.84,20.35-18.08a82.47,82.47,0,0,0,5.85-8.65l.91-1.59.14-6.52c.08-3.58.1-6.51.06-6.51A13.75,13.75,0,0,0,356,125.39Zm.59,21-.86,1.35a66.22,66.22,0,0,1-16.05,17.16l-1.59,1.14L347,166c6.41-.05,9-.14,9.25-.3s.33-1.11.38-7.66c0-4.08,0-8.37,0-9.53Z"/><path class="cls-2" d="M1.89,39.67a.27.27,0,0,1,0-.34c.09-.15,9-.21,29.74-.21,28,0,29.63,0,29.81.35a15,15,0,0,1,.32,2.93c.15,2.9.49,19.26.4,19.35s-1.92-.57-4.21-1.34c-6.25-2.11-8.63-2.6-16.07-3.29-8.67-.8-13.67-1.49-13.93-1.91s.3-.4,1.06-.19c.43.11,3.14.35,6,.51,8.43.49,13.1,1,17,1.91a38.57,38.57,0,0,1,8,2.77l1.47.81-.12-2.75c-.06-1.52-.2-4.07-.3-5.73s-.25-5.1-.32-7.68l-.13-4.71L43.08,40l-29.29-.17C7.33,39.84,2,39.75,1.89,39.67ZM63.31,84.3c-.41-.1-1.68-.34-2.81-.53a40.8,40.8,0,0,1-4.59-1.11c-9.37-2.9-9.37-2.9-16-2.46-5.27.34-6.3.47-6.36.79,0,.11.39.26.95.33s2.85.72,5.12,1.44,6.52,2,9.44,2.91c6.62,2,11.23,3.51,11.68,3.83.28.21.31.48.2,1.85L60.81,93l-19.62.12c-10.78.08-24,.19-29.4.26L2,93.48,1.92,67.15c0-14.49-.16-26.67-.23-27.08-.14-.73-.44-1-.6-.5C.82,40.4.55,48.33.4,60.3.3,67.86.15,78.45.08,83.87,0,92.69,0,93.75.24,94s1.81.33,12.62.46c6.76.07,20.35.14,30.17.15,17.43,0,17.89,0,18.32-.38s.46-.61.59-4c.08-1.95.19-4,.26-4.52l.12-1,.79.05C64.17,85,64.31,84.55,63.31,84.3Zm83.83,9.26c2.2,1,2.15.86,2.17,6.82,0,5.38.22,6.89,1.07,8.56a6.31,6.31,0,0,0,2.67,2.6,9.49,9.49,0,0,0,3.92.63l.71-.09.14,1.6c.08.88.13,2.31.12,3.16,0,2.12,0,2.24.2,2.24.38,0,.62-.83.76-2.62.1-1.32.22-1.85.43-1.95,2.65-1.24,4.18-2.48,4.18-3.38,0-1.2-1.33-1.46-4.4-.88-3.48.67-5.82.08-7.06-1.75s-1.48-3-1.7-8a52.78,52.78,0,0,0-.38-5.29c-.29-1.11-.88-1.71-2.43-2.47s-2.46-1.66-2.26-2.16A12.23,12.23,0,0,1,147.6,89c3.83-2.3,5.25-4.12,6.66-8.54a48.33,48.33,0,0,1,2.2-5.44l1.3-2.63,1.13,1.21A15.94,15.94,0,0,0,166.18,78c2.38.8,3.59,1.49,4.11,2.33s.52,2.71-.12,4.38a7.77,7.77,0,0,0-.49,2.11,3.57,3.57,0,0,0,.77,2.26,2.59,2.59,0,0,0,1.22-.27c1.35-.53,2.22-.51,2.92.08.5.43.56.59.55,1.73a5.63,5.63,0,0,1-1.72,4.08,4.51,4.51,0,0,1-3.29,1.66,1.68,1.68,0,0,0-.92.17,52.12,52.12,0,0,0,.84,6,10.42,10.42,0,0,0,3.7,6.21c2.47,2.08,5.16,3,7.52,2.61l1.36-.22a6.45,6.45,0,0,1,.09,1.35c0,2.37,1.44,6.11,2.07,5.49.18-.18.19-.34,0-.62a24.07,24.07,0,0,1-1.06-6,9.31,9.31,0,0,1,.24-2.17c.73-2.21,4.1-6.73,8.63-11.58a28.93,28.93,0,0,0,5.21-7.06c1-2,1.4-3.64,1.2-4.72s-1.29-2.14-2.08-2.14h-.6l.68-1.74c.88-2.2,1.17-4,.87-5.09a8.17,8.17,0,0,0-4-4.44,55.28,55.28,0,0,0-6.12-2.3,9.37,9.37,0,0,1-5.7-3.78,16.06,16.06,0,0,1-1.36-4.14c-1.11-4.63-1.61-6.16-2.46-7.46a14,14,0,0,0-6.61-5.2,10.53,10.53,0,0,0-3.86-.6,8.76,8.76,0,0,0-3.9.43,15.63,15.63,0,0,0-7.49,6,16.62,16.62,0,0,0-1.26,2.88,9.62,9.62,0,0,0-.64,4.18A14.86,14.86,0,0,0,156.37,70l1,1.91-1,1.67a27.35,27.35,0,0,0-3,6.72c-1.28,3.94-2.45,5.37-6.34,7.71-2.15,1.29-2.72,1.76-2.79,2.28C144.05,91.37,145.19,92.66,147.14,93.56ZM48.81,61.91c-1.08-.15-3.44-.63-5.25-1.07S38.35,59.62,36,59.11c-4.79-1-5.94-1.42-7.4-2.41-1-.68-1.37-.82-1.35-.54,0,.65,2.86,2.78,5.63,4.25,1.71.91,1.73.93,1.11,1.06a14.59,14.59,0,0,1-2.09.13c-2.82,0-8.66.93-9.6,1.53s-.22.68,1.27.36c2.2-.48,9.63-.74,18.92-.67,4.73,0,8.64,0,8.71,0C51.49,62.47,50.64,62.17,48.81,61.91ZM71.1,67.46C81.22,78.6,87.67,90.38,96.87,114.51c1.11,2.9,2.27,5.89,2.58,6.66a68,68,0,0,0,3.43,7.69c.84.52.48-1.12-1.48-6.69-4.51-12.79-12.25-30.52-16.87-38.59A92.08,92.08,0,0,0,72.2,67.36c-2.67-2.88-7.62-8.55-8-9.17s-.59-.45-.43.08C64.06,59.23,67.25,63.23,71.1,67.46Zm-20.49-1a1.2,1.2,0,0,0-.92-.16A29.39,29.39,0,0,1,45.61,66a90.6,90.6,0,0,0-13.37-.78c-2.58,0-5.1.07-5.59.11-1.35.11-1.79.25-1.79.56s.68.47,6.07.58c2.62,0,6.61.25,8.85.42,5.41.44,10.09.48,10.74.11C51,66.72,51,66.7,50.61,66.43Zm-2.79,7.48a10,10,0,0,1,1.53-.78c.23,0,0-.95-.34-1.53s-.32-.48-4-1c-3.27-.51-7.38-.93-12.83-1.31-5.27-.37-5.37-.37-5.37,0s1.45.9,4.44,1.42c3.18.56,13.66,3.09,13.66,3.3a15.26,15.26,0,0,1-2.74.79c-7.18,1.71-12.33,3-12.83,3.17-1.11.42-1,1.54.32,2.27a6.42,6.42,0,0,0,3.14.81c.37-.23.14-.48-.66-.69S29.73,79.14,29.87,79s1.28-.3,2.75-.59C38.77,77.2,45.59,75.18,47.82,73.91Zm152.63,8.25c1.39-.11,1.66-.19,1.61-.45s-.34-.34-1.21-.38l-1.16-.06.54-.64c1.16-1.37,1.37-2.92.4-2.92-.4,0-.53.16-.81,1a8.79,8.79,0,0,1-1,1.94,4.7,4.7,0,0,0-.69,1.19C198.12,82.2,198.74,82.29,200.45,82.16ZM159,84.93a6.07,6.07,0,0,0,1.16-2.51c0-.93-1.07-1.25-1.79-.53a4.16,4.16,0,0,0-.8,2.24C157.54,85.15,158.38,85.61,159,84.93Zm46,34.79c-.39-.19-15.38.18-42.81,1.06-5,.16-13.89.43-19.8.59s-15.39.48-21.08.7-11.56.4-13,.4c-3.28,0-3.37,0-2.89,1.63a27.26,27.26,0,0,1,.55,8c-1.07,7.54-4.2,15.51-7.59,19.32C97,152.8,96.53,153,94.8,152.7c-4-.65-6.41-1.72-8.56-3.88-4.06-4.08-6.64-10.1-10.85-25.36C73.6,117,73,114.51,71,106.45a180.09,180.09,0,0,0-6-20.25c-.38-1-.8-1.49-.8-.91a15.25,15.25,0,0,0,.59,1.89c.77,2.18,3.6,13.68,4.28,17.38a219.16,219.16,0,0,0,5.3,21.78c2.44,8.6,4.14,13.43,6.14,17.41a19.76,19.76,0,0,0,4.36,6.16,11.39,11.39,0,0,0,5.72,3.4,55.71,55.71,0,0,0,9.71.81h2l.67-1.21c1.44-2.62,2.89-7.8,3.55-12.65.42-3.08.48-13.69.09-15.7a4.88,4.88,0,0,1-.16-1.24s6.55-.2,14.47-.36,18.46-.39,23.4-.52,9-.2,9.1-.14A30.39,30.39,0,0,1,154,128a46.08,46.08,0,0,1-2.62,12.74c-.54,1.42-3.18,7.42-4.1,9.33a45.36,45.36,0,0,1-5.22,7.67,11.31,11.31,0,0,0-1.31,1.67c.16.16,1.49-1,2.43-2.08a55,55,0,0,0,7.22-11.56,97.35,97.35,0,0,0,3.86-10.44,30,30,0,0,0,1-9.31c-.07-1.6-.18-3.13-.24-3.44l-.12-.54h2.46c3,0,14.13-.27,33.16-.8,9.49-.27,14.29-.47,14.46-.61A.52.52,0,0,0,204.93,119.72Zm86.71,3.13c1.27,0,3.64-.12,5.27-.27,4.95-.48,6.84-.55,9-.33,1.15.12,2.34.27,2.65.34.48.11.56.08.5-.23s-.51-.52-1.56-.86a11.23,11.23,0,0,0-4.28-.5c-1.54,0-4.29.15-6.16.34a60.54,60.54,0,0,1-7.17.56c-.05-.05-.1-6.06-.1-13.34V95.31l34.42-.06,34.41-.06,0,.56c0,.31.12,7.36.25,15.68.2,13.2.27,15.11.53,15.11s.29-1.85.23-15.81c0-9.33-.15-15.9-.26-16s-12.12-.21-35.17-.21h-35l-.12.57c-.07.32-.12,6.36-.12,13.44v12.86l-.6.26C287,122.26,288.49,122.82,291.64,122.85ZM155.08,99.29a.58.58,0,0,0-1.08.3c-.09.76.78,1.49,1.73,1.46A11.48,11.48,0,0,0,160,99c.33-.36.3-1,0-1-.09,0-.86.33-1.71.71C156.31,99.61,155.42,99.77,155.08,99.29Zm122.37,25.56a60.4,60.4,0,0,1,9.75-7.95c1-.63,1.26-1.16.72-1.34a7.3,7.3,0,0,0-1.89,1.06,57.69,57.69,0,0,0-9.65,8.33c-2.11,2.27-2.35,2.58-2.17,2.89A26.13,26.13,0,0,0,277.45,124.85Zm81.84,7c-.31,0-.41,1-.73,7.27-.43,8.33-.53,14.61-.36,21.66.1,4.19.09,6.36-.05,6.4s-10.76.16-23.67.27-28.24.27-34.06.34l-10.6.13V146.36l.54-.37c1.88-1.29,8.2-3,12.83-3.44a22.69,22.69,0,0,0,2.95-.38c.69-.22-3.64-1-8.56-1.62-4.35-.52-12.32-.74-14-.39-2,.43-3.29,1.22-5.14,3.23-3.81,4.14-13.76,14.17-15.71,15.83-1.15,1-2.35,2.06-2.68,2.41-1.57,1.71-7.88,6-11.44,7.79a29.67,29.67,0,0,1-6.55,2.29c-1.13.15-4.39-.26-4.39-.55a7,7,0,0,1,.66-1.33,26.24,26.24,0,0,0,3.19-8.18,48.66,48.66,0,0,0,1.3-9.94c.23-5.59.3-5.31-1.73-7-6.17-5.22-23.41-17.52-32.07-22.88-1.59-1-1.86-1.1-1.73-.7a19.73,19.73,0,0,0,2.75,2.15c1.46,1,4.1,3,5.85,4.29s5.68,4.22,8.75,6.44c7.26,5.28,10.54,7.76,13.5,10.2,1.34,1.1,2.75,2.18,3.17,2.42.83.48.83.48.53,3.27-.86,7.81-4.68,15.26-11.1,21.58L229.21,173l-1.45-3.14c-.8-1.73-3.22-6.86-5.37-11.4-8.68-18.26-10.65-22.63-12.14-26.89-1.26-3.64-1.78-4.77-1.78-3.88,0,.43,2.44,8.49,4.44,14.66,5.62,17.37,8.62,28.56,13.85,51.82,1.19,5.25,3.17,13.91,4.4,19.24l2.25,9.7h.94c.79,0,.92-.05.85-.35s-.49-2.22-1-4.52c-1.39-6.41-5.72-24.63-8.17-34.4-.81-3.26-1.5-6-1.52-6.12a6.38,6.38,0,0,1,1.73-1.28,27.9,27.9,0,0,0,5.29-4.18l1.31-1.27,1.65.72a20.35,20.35,0,0,0,6.53,1.47c1.35,0,5.07-1.22,7.92-2.59,4.49-2.17,10.26-6.47,15.47-11.54,3.19-3.09,14.42-14.83,15.45-16.15a6.94,6.94,0,0,1,3.49-1.73,24.47,24.47,0,0,1,3.42-.22H289v27.75l15.08,0c21.26-.06,54.63-.45,54.82-.64s.19-7.32.23-16,.14-16.86.22-18C359.46,132.46,359.44,131.81,359.29,131.81Zm-47.54-1.75c.82-.82-2.89-2.4-7.28-3.11a11.48,11.48,0,0,1-1.87-.39,23.59,23.59,0,0,1,4.33-2.17,11.34,11.34,0,0,1,1.63-.43c.8-.13,1-.4.4-.53a9.68,9.68,0,0,0-1.53,0c-5.11.21-17,2.52-17,3.31,0,.38,1.08.52,4.14.52a68.81,68.81,0,0,1,11.12,1.1c3,.53,4.1.85,5.21,1.5C311.29,130.08,311.64,130.17,311.75,130.06Zm47.34-2.67c-.32.11-.34,3.35,0,3.55s.47-.12.55-1.75S359.57,127.21,359.09,127.39Zm-112.73,19.1a36,36,0,0,1,3.18-2.15c5.71-3.18,16-9.37,19.16-11.49,4.46-3,5-3.42,5-3.76s-.44-.31-1.49.41-7.52,4.56-14.42,8.58-11.14,6.86-12.82,8.61C243.6,148.14,244.29,148,246.36,146.49Zm64.51-14.87c-.51-.22-6.05-1.09-8.81-1.39a94.18,94.18,0,0,0-10.74-.25c-.34.08-.6.27-.6.44,0,.37.95.49,6.17.79,4.87.28,11.78.76,13.15.92C311.15,132.26,311.66,132,310.87,131.62Zm-2.07,4.11a3.45,3.45,0,0,0,1.67-.28c.15-.46-2.54-.92-7.32-1.25a38.56,38.56,0,0,0-6.06-.07,32.7,32.7,0,0,0-6,.7c-.37.31-.32.41.42.92,1,.68,2.4,1.17,6.12,2.14,3.94,1,7.14,2.23,8.18,3.1s1.36.65.54-.28-2.55-1.78-6.37-3.06C299,137.34,305.92,135.84,308.8,135.73Zm-169.56,26c0-.41-1.79-1.2-5.27-2.33a53.54,53.54,0,0,0-13.63-2.83c-2.72-.3-14.17-.57-15.61-.37l-1.47.2c-1.94.26-.26.49,4.75.67,5.36.19,9,.48,15.32,1.21a58.43,58.43,0,0,1,13.42,3c1.3.44,2.4.8,2.43.8S139.24,161.91,139.24,161.73Zm1.9,5c-1.21-3.49-1.69-4.5-2.14-4.5-.09,0-.16.12-.16.28s.4,1.47.87,2.92c2.7,8.2,3.65,12.53,5.79,26.42,2.43,15.79,2.92,19.93,3,26l.11,5.21h.87c.81,0,.86,0,.86-.54-.08-7.15-1.4-18.78-3.68-32.18C144.9,179.77,143.28,172.87,141.14,166.75Z"/><path class="cls-5" d="M510,8.25l-.08-.93-1,0a6.39,6.39,0,0,0-1.15,0c-.08,0-2.66.19-5.75.35-7.37.39-25.65,1.42-28.12,1.58a18.2,18.2,0,0,0-5.18,1.07C452,15.17,440,21.72,427.08,33.06l-2,1.73,10.37,0,10.37,0,.88-.77c5.26-4.6,11.73-8.4,16.94-10a25.9,25.9,0,0,1,8.6-1.17c2.77.14,4.35.61,5.47,1.63,1.9,1.72,1.8,4.57-.34,9.16l-.65,1.39h32.13l.41-.35.4-.36.07-4.57C510,14.66,510.05,9.09,510,8.25Zm-23.41,7a2.38,2.38,0,0,1,1.74-.17,1.72,1.72,0,0,1,.66,1.44,1.68,1.68,0,0,1-1.42,1.5A1.53,1.53,0,0,1,486.56,15.27Zm2.91,13.84c-.76,1.45-2.75,1.33-3-.19a1.78,1.78,0,0,1,.67-1.62,1.33,1.33,0,0,1,1.72-.27A1.45,1.45,0,0,1,489.47,29.11ZM492,23.65a1.45,1.45,0,0,1-1-2.38,1.29,1.29,0,0,1,1.51-.2,1.45,1.45,0,0,1,.88,1.28A1.85,1.85,0,0,1,492,23.65Zm-65.49,8.56c-.94.86-2,1.81-2.31,2.09l-.6.52-8.61.07-8.6.08,1-1A106,106,0,0,1,436.53,12l1.44-.72,8-.46c9.71-.56,14.87-.86,17.26-1l2.3-.14c.3,0-.82.43-2.66,1a93.7,93.7,0,0,0-13.73,5.7c-1.7.86-4,2.09-5.11,2.74A106.56,106.56,0,0,0,426.49,32.21Zm-18.3-.42-3,3.09h-4.46c-2.46,0-4.64,0-4.86-.11l-.4-.11,1.27-1.73a98.82,98.82,0,0,1,19.21-19l1.83-1.38,8.59-.52c4.74-.28,8.61-.53,8.63-.54s0,0,0,0-.92.55-2,1.16A100.67,100.67,0,0,0,412.71,27.3C411.89,28.07,409.85,30.09,408.19,31.79Zm-4.54-8.88a80.84,80.84,0,0,0-9.48,11.28l-.36.53h-2.4a22.33,22.33,0,0,0-2.62.09c-.2.07-.23-.1-.23-1.33,0-.78.06-2.69.14-4.22.36-7,.57-13,.48-14s-.08-1.11.23-1.11,13.56-.78,20.44-1.21l5.53-.35c.36,0,.36,0-2.44,2.15A88.23,88.23,0,0,0,403.65,22.91ZM476.22,33.1,475.28,35H447l.5-.43a60,60,0,0,1,12.09-7.88A31.22,31.22,0,0,1,469,24c5-.51,8.28.44,8.85,2.56C478.25,27.88,477.69,30.08,476.22,33.1Z"/><path class="cls-1" d="M404.38,76.56l-7,4-4.45-.12-4.45-.13,5.8-3.62c8.16-5.1,14.63-9,19.93-11.91l4.55-2.53,4.24-.08,5-.12c.69,0,1.35.16,1.16.32s-1.64.95-3.55,2-5.9,3.37-8.88,5.09S408.22,74.38,404.38,76.56ZM410,65.64l5.7-3.34-5.86,0-35.53.2c-16.32.08-29.69.21-29.71.28a35.57,35.57,0,0,0,4,1.64c8.33,3.13,22.54,8.89,32.75,13.27,3,1.29,5.51,2.33,5.6,2.33s2.68-1.65,5.76-3.68C399.32,72,402.39,70.08,410,65.64Zm14.74,8.49,5.17-1.46,0-4.49a41.05,41.05,0,0,0-.08-4.47c-.06,0-1.22.64-2.58,1.4S422,68,418.69,69.82c-5,2.74-14.42,7.92-18.44,10.18l-.93.51h5l4-1.38C413,77.54,417.41,76.18,424.71,74.13Zm-52.25,2.06c-3.31-1.38-8.2-3.38-10.88-4.47l-7.67-3.15c-2.37-1-5.8-2.38-9-3.66l-.74-.29v.81c0,.44-.06,2.51-.14,4.59-.36,9.41-.36,9.65-.11,9.91s2,.25,15.79.26c8.56,0,17.2.06,19.19.12s3.59.06,3.55,0-.94-.43-2-.86S375.78,77.57,372.46,76.19Zm57.65,2c0-1.37-.06-2.79-.12-3.14l-.11-.63-7.64,2c-4.2,1.13-9.3,2.53-11.34,3.12l-3.69,1.07,9.48.09c5.3.06,10.19.18,11.08.28,1.39.15,1.63.14,2-.07S430.11,80.66,430.11,78.16Z"/><path class="cls-4" d="M475.48,41c-2.87.37-7.46,3.57-8.76,6.11l-.39.76a6.82,6.82,0,0,1-1-.9c-1.33-1.35-2.24-1.65-5-1.64a12.25,12.25,0,0,0-6.24,1.42,11.6,11.6,0,0,0-5.95,6.65,13.13,13.13,0,0,0,.46,7.48c.08.22-.07.33-.67.5a6.51,6.51,0,0,0-3.78,4,6.17,6.17,0,0,0-.23,2.24,3.17,3.17,0,0,0,.65,2.21,4.23,4.23,0,0,0,2.1,1.56c2.1,1,2.21,1.22,2.16,4.08-.05,3.06.45,4.37,2,5.15a3.09,3.09,0,0,0,3.14.08c1-.39,1.23-.44,1.29-.24a8.69,8.69,0,0,0,2.85,2.6,4.58,4.58,0,0,0,2.63.49h1.63l.84,1.78c3.48,7.44,4.21,8.7,6,10.36a11.14,11.14,0,0,0,2.19,1.49c1.14.56,1.28.59,3.2.59h2l.44,1.38a11.09,11.09,0,0,1,.43,1.69c0,.2-.85.81-2.48,1.79-2.85,1.71-3.38,2.14-3.38,2.74,0,.31-.51.89-1.91,2.19-1.05,1-3.15,2.93-4.66,4.35s-3.66,3.42-4.75,4.42c-3.12,2.85-3.05,2.74-4.47,7.45-.69,2.25-1.54,5.2-1.9,6.54s-1.28,4.69-2.07,7.42-2.17,7.74-3.09,11.1-1.71,6.15-1.76,6.2-2.95-.37-6.47-.93c-4.73-.74-6.5-1-6.8-.82s-4.31,1.6-9.11,3.36-14,5.17-20.52,7.61l-16.26,6.09c-2.45.92-4.5,1.75-4.57,1.85s-.12,9.66-.09,21.22c0,18.5.07,21,.31,21.18s9.38,3.16,20.52,6.84,20.38,6.77,20.53,6.87.51.06,1-.14,4.34-1.68,8.78-3.36l8.08-3.07,30.83-.2c17-.11,37.36-.23,45.34-.25,14.41,0,14.51,0,14.44-.4s-.29-1.67-.54-3.29c-.72-4.71-3-17.93-3.39-19.33-.09-.36,0-.46,1-.88a69.57,69.57,0,0,0,11.55-6.44,31.58,31.58,0,0,0,7.63-8.56c.67-1.33,1.45-4.51,1.21-5a2.67,2.67,0,0,1-.17-1c0-1.91-2.22-10-3.33-12.15-.13-.27-.18-.48-.09-.48a14.32,14.32,0,0,0,1.78-1.08c1.87-1.22,3.77-2.9,3.77-3.33s-2-6-3.28-9.4c-4.75-12-10.9-24.59-15.85-32.42-.76-1.19-1.5-2.29-1.66-2.45s-.78-.94-1.39-1.74a25.53,25.53,0,0,0-5.54-5.41c-4.37-2.89-10.46-5.42-20.25-8.41a13.84,13.84,0,0,1-2.93-1.11c-2.92-4.4-3-4.47-3.43-4.47a1.27,1.27,0,0,0-.77.3c-.2.18-.4.24-.49.14a54.38,54.38,0,0,1-3.6-7.19l-.84-2,1.08-.3a9.74,9.74,0,0,0,3.77-1.94,3.77,3.77,0,0,0,1.52-3c0-1.48-1.13-3.5-2.18-3.92a8.26,8.26,0,0,1,1.76-2c2.09-2.06,2.51-2.76,2.3-3.88A3.32,3.32,0,0,0,499,67.84c-.8-.19-.82-.26-.25-.85a15.85,15.85,0,0,0,2.78-4.8c.63-2.31.05-4.29-1.57-5.38-1-.7-1.67-.89-3.85-1.14a10,10,0,0,1-2.19-.45c-.69-.36-1.11-1.43-1.35-3.44a15.41,15.41,0,0,0-.48-2.54,6.18,6.18,0,0,0-2.84-3.07c-1.49-.57-4.78,0-5.86,1l-.38.35-.22-.77c-.66-2.18-2.37-4.58-3.81-5.31a6.4,6.4,0,0,0-3.52-.46Z"/><path class="cls-1" d="M401.89,174.71l-3.35,1.44-1.26-.37a16.66,16.66,0,0,0-1.62-.4c-.2,0-.36-.15-.36-.28,0-.34,8.41-3.67,25.68-10.17,7.28-2.74,13.47-5.09,13.77-5.22a1.72,1.72,0,0,1,.79-.17c.15,0,1.19.2,2.31.36,2.22.33,2.66.5,1.75.7-1.07.23-11.5,3.73-15.34,5.15C417,168.43,410,171.22,401.89,174.71Zm69.54-9.27c.8,0,.41-.13-2.13-.54-1.71-.27-5.4-.9-8.19-1.38-5.58-1-16.55-2.64-18.1-2.76a4.7,4.7,0,0,0-1.69.18l-5,1.61c-5.88,1.89-13.91,4.82-21.4,7.82-8.37,3.35-14.6,6-14.48,6.11s2.09.57,4.53,1.12l4.42,1L411,178a184.47,184.47,0,0,1,35.68-10.08A203.35,203.35,0,0,1,471.43,165.44Zm-3.2,1.57a206.45,206.45,0,0,0-41.3,6.59c-6.42,1.81-16.32,5.21-15.76,5.41.17.07,1,.26,1.82.43l1.5.31L418,178.5c12-4.34,21-6,38.39-7.06l4.37-.27,3.36-1.14,6.38-2.21C473.92,166.6,474,166.63,468.23,167Zm-15,5.5c-12.56,1.05-21.12,2.41-28.87,4.61-2.72.78-7.79,2.45-8.33,2.75-.35.2-.32.21,1.69.71l1.44.36,1.58-.53a79,79,0,0,1,20.14-3.49l3.11-.12,6.4-2.16c3.52-1.2,6.52-2.22,6.66-2.28C457.44,172.21,456.38,172.25,453.22,172.51Zm-13.94,5.17-2.58.25a74.07,74.07,0,0,0-8.26,1.25c-2.42.49-6.47,1.53-7.46,1.91l-.45.17.45.11,2.37.54a5.62,5.62,0,0,1,2.26.79c.42.44.39.44,1.19,0,.37-.18,3.73-1.34,7.5-2.59s7-2.33,7.11-2.42S440.61,177.55,439.28,177.68Z"/><path class="cls-2" d="M444.57,69.77a4.23,4.23,0,0,0,2.1,1.56c2.1,1,2.21,1.22,2.16,4.08-.05,3.06.45,4.37,2,5.15a3.09,3.09,0,0,0,3.14.08c1-.39,1.23-.44,1.29-.24a8.69,8.69,0,0,0,2.85,2.6,4.58,4.58,0,0,0,2.63.49h1.63l.84,1.78c3.48,7.44,4.21,8.7,6,10.36a11.14,11.14,0,0,0,2.19,1.49c1.14.56,1.28.59,3.2.59h2l.44,1.38a11.09,11.09,0,0,1,.43,1.69c0,.2-.85.81-2.48,1.79-2.85,1.71-3.38,2.15-3.38,2.76,0,.32-.52.9-2.09,2.34-1.14,1-3.33,3.08-4.84,4.5s-3.5,3.27-4.4,4.1c-1.51,1.37-1.86,1.78-1.51,1.78a25.58,25.58,0,0,0,2.28-1.91c1.17-1,3-2.63,4-3.51l4.2-3.69a23.81,23.81,0,0,1,2.54-2.08c.1,0,.19.19.19.42,0,.53,1.35,7.25,1.62,8.07.2.62.79.79,1,.28a49.73,49.73,0,0,0-1.76-7.78,21.08,21.08,0,0,1-.64-2.63,13.89,13.89,0,0,1,3.89-2c.07.11,1.18,1.25,2.48,2.55l2.35,2.35L478,112.42c-2.65,4-3.15,4.92-2.7,4.92a63.66,63.66,0,0,0,4.47-6,12.46,12.46,0,0,1,1.16-1.56s-.06,1.09-.2,2.36a114.2,114.2,0,0,0,0,23.93,14.25,14.25,0,0,0,.53,3.62c.37.14,1.67-.3,1.67-.57s-.22-.26-.79-.26h-.79l-.11-.93a157,157,0,0,1-.45-19.59c.31-5,.8-9.33,1.06-9.33.06,0,1.13,2,2.38,4.55s2.47,4.86,2.71,5.24c.45.71.79.89.79.42,0-.13-1.21-2.64-2.67-5.56s-2.66-5.38-2.66-5.48a33.61,33.61,0,0,1,3-2.65c3.13-2.59,11.17-9.43,12-10.17l.46-.42,1.4,2.13,1.41,2.13-3.89,5.94c-5.53,8.43-8.48,13.1-8.48,13.41,0,.58.55,0,1.7-1.64,1.53-2.22,7.44-11.13,9.66-14.56,1.27-2,1.75-2.57,2-2.48s2.26.75,4.68,1.52A102.24,102.24,0,0,1,522,107.49a21.07,21.07,0,0,1,6.55,4.68c1.54,1.6,2.09,2,2.09,1.67a19,19,0,0,0-2.89-3.47c-3.8-3.83-10.65-7-23.23-10.9a13.84,13.84,0,0,1-2.93-1.11c-3-4.46-3-4.47-3.45-4.47s-1,.42-2.17,1.48c-7.26,6.36-8.9,7.8-11.19,9.86a26.78,26.78,0,0,1-2.82,2.34,7.54,7.54,0,0,1-2.45-2.38c-.2-.54-1.64-7.41-1.64-7.87,0-.13.32-.4.69-.59.62-.32.75-.33,1.19-.1,1.12.58,2.11.21,3.46-1.29,2-2.16,3.83-6.43,2.81-6.43a24.49,24.49,0,0,0-2.42,2.33c-2.51,2.59-4,3.84-5.64,4.6a8.08,8.08,0,0,1-4.07.82,8.37,8.37,0,0,1-4.3-2.47c-1.38-1.5-1.83-2.26-4.19-6.91l-2.05-4,.73-.43a7.62,7.62,0,0,0,2.74-3,4.93,4.93,0,0,0,.48-2.8V75.23l1.24-.55L470,74c.12-.05.41.3.67.82a6.36,6.36,0,0,0,2.9,2.83,4.79,4.79,0,0,0,2.61.47,4.62,4.62,0,0,0,2.77-.57,6.11,6.11,0,0,0,3.35-6.89c-.13-.58-.24-1.13-.25-1.22a6.33,6.33,0,0,1,1.58-.82c1.43-.6,1.62-.65,1.81-.39s.29.12.75-.8c1.12-2.22,2.69-2.8,4-1.46,1.59,1.7,1.27,6.51-.55,8.25-.26.25-.56.45-.63.42-.51-.21-.12,2.7.76,5.79,1.11,3.88,5.52,13.06,6.27,13.06.23,0,.23-.58,0-.82a46.07,46.07,0,0,1-2.7-5.57l-.84-2,1.08-.3a9.74,9.74,0,0,0,3.77-1.94,3.77,3.77,0,0,0,1.52-3c0-1.48-1.13-3.5-2.18-3.92a8.26,8.26,0,0,1,1.76-2c2.09-2.06,2.51-2.76,2.3-3.88A3.32,3.32,0,0,0,499,67.84c-.8-.19-.82-.26-.25-.85a15.85,15.85,0,0,0,2.78-4.8c.63-2.31.05-4.29-1.57-5.38-1-.7-1.67-.89-3.85-1.14a10,10,0,0,1-2.19-.45c-.69-.36-1.11-1.43-1.35-3.44a15.41,15.41,0,0,0-.48-2.54,6.18,6.18,0,0,0-2.84-3.07c-1.49-.57-4.78,0-5.86,1l-.38.35-.22-.77c-.66-2.18-2.37-4.58-3.81-5.31a6.4,6.4,0,0,0-3.52-.46c-2.87.37-7.46,3.57-8.76,6.11l-.39.76a6.82,6.82,0,0,1-1-.9c-1.32-1.35-2.24-1.65-5-1.64a12.25,12.25,0,0,0-6.24,1.42,11.6,11.6,0,0,0-5.95,6.65,13.13,13.13,0,0,0,.46,7.48c.08.22-.07.33-.67.5a6.51,6.51,0,0,0-3.78,4,6.17,6.17,0,0,0-.23,2.24A3.17,3.17,0,0,0,444.57,69.77Zm36.64,4.56a6.27,6.27,0,0,1-2.72,2.7A5.73,5.73,0,0,1,473.9,77a5.48,5.48,0,0,1-.78-9.46,5.16,5.16,0,0,1,3.27-1c.26.08.85.23,1.35.34a5.73,5.73,0,0,1,3.84,3.81A6.07,6.07,0,0,1,481.21,74.33ZM457.4,70.42c0-1.58.2-2.83.46-2.83.57,0,3.67-2.34,5.41-4.08,2.25-2.26,3.54-4.12,4-5.74l.32-1.17.48.74a11.31,11.31,0,0,0,1.56,1.75,9.19,9.19,0,0,0,4.44,2.32c1.09.2,1.35.19,5.9-.32a2.19,2.19,0,0,1,1,.06,3.33,3.33,0,0,1,.39,1.35,8.34,8.34,0,0,0,.59,2,8.28,8.28,0,0,0,2.35,2.61c.26.15.07.29-1.19.85l-1.51.68-.93-1a5.58,5.58,0,0,0-5.42-1.76A6.05,6.05,0,0,0,470,71.61L470,72.92l-1.49.82a8.56,8.56,0,0,1-1.55.75s-.23-.36-.45-.71A8.11,8.11,0,0,0,463.19,71a6,6,0,0,0-3.93-.11C457.26,71.45,457.4,71.49,457.4,70.42Zm-1,3.16.4-.48.4,1.2a20.6,20.6,0,0,0,.84,2.09c.37.73.47.82.56.55a1.61,1.61,0,0,0-.2-1,10.84,10.84,0,0,1-.62-2c-.3-1.34-.3-1.38,0-1.63a5.11,5.11,0,0,1,3.5-.74c1.44.05,1.79.12,2.13.42L464.66,73a5.66,5.66,0,0,1,.53,7.77,7.61,7.61,0,0,1-1.53,1.3l-.81.48-.28-.38c-1.85-2.41-2.43-3.09-2.47-2.87a6.31,6.31,0,0,0,.83,1.75,5.87,5.87,0,0,1,.8,1.62c-.3.49-2.89-.1-4.1-.93A5.71,5.71,0,0,1,456.43,73.58Zm9.78-28.12c0-1.41.71-3.26,1.39-3.73.37-.26.84-.33,1-.15s-.17.46-.49.89a7.55,7.55,0,0,0-1.3,3.41c-.08.57-.2.84-.38.84S466.2,46.47,466.21,45.46Zm-3.45-2.17c.54-.54,2.63.09,2.63.78,0,.24-.13.26-.79.17a2.16,2.16,0,0,0-1.16.08A.62.62,0,0,1,462.76,43.29Zm7.66,38.28c-.14,1.18-.13,1.3.14,1.3.5,0,.87.21.87.48s-1.84,1.18-2.29,1-.58-.56-.28-2a24.76,24.76,0,0,0,.32-4,7.45,7.45,0,0,1,.21-2.57C470.09,76,470.69,79.37,470.42,81.57Zm8.94,1.14c.33.28,0,1-.91,2.06s-2,1.69-2.79,1.47c-.94-.27-.92-.44.07-.93a11.74,11.74,0,0,0,2.17-1.63C478.82,82.8,479.18,82.56,479.36,82.71Zm47.56,31c0,.09-.34.24-.71.31a24.78,24.78,0,0,0-7.39,3.72,35.44,35.44,0,0,0-7.35,7.92,40.08,40.08,0,0,0-3.47,6.84,3.75,3.75,0,0,1-.55,1.19c-.63,0,1.28-4.58,3.34-8,3.65-6.06,8.09-9.91,13.62-11.81C525.67,113.44,527,113.35,526.92,113.7Zm21.76,48.93c1.87-1.22,3.77-2.9,3.77-3.33s-2-6-3.28-9.4c-4.86-12.29-11.29-25.39-16.26-33.06-1.18-1.83-1.6-2.31-1.6-1.81,0,.11,1,1.94,2.19,4,5.74,10,9.1,17.16,14.48,30.61,1.26,3.16,2.66,6.62,3.1,7.67l.8,1.91h-1.74c-2.88,0-5.69.6-11.11,2.4-8.29,2.75-14.54,6.61-18.15,11.22l-.71.91-2-6.16c-3.74-11.52-4.44-13.61-6.77-20.45-1.29-3.77-2.57-7.56-2.86-8.44-.51-1.57-.91-2.24-1.17-2a20.68,20.68,0,0,0,.8,3.28c.51,1.73,2.16,8,3.67,14s3.26,12.78,3.88,15.16c1,3.94,1.13,4.41,1,5.23-.43,2.35-2.13,4.47-5.65,7.05l-6.93,5.16c-5.45,4.08-9.85,7.27-11.28,8.19-1.13.73-1.72.75-4,.16-1.12-.3-2.06-.53-2.11-.53s0-8.59.32-21.41c.2-8.53.19-11.14-.06-11.39a12.25,12.25,0,0,0-2.13-.44c-6.16-1-25.36-4.07-25.85-4.18s-.4-.14-.29-1.37c.06-.7.78-4.64,1.59-8.74,2-9.93,2.26-11.62,2.16-12.26-.05-.29-.55-1.72-1.13-3.2-.8-2-2.85-8.22-3.91-11.79-.05-.18-.13-.2-.27-.06s-2,6-3.26,10.7c-.54,2-1.54,5.59-2.23,8s-2,7.12-2.93,10.48-1.71,6.15-1.76,6.2-2.95-.37-6.47-.93c-4.73-.74-6.5-1-6.8-.82s-4.31,1.6-9.11,3.36-14,5.17-20.52,7.61l-16.26,6.09c-2.45.92-4.5,1.75-4.57,1.85s-.12,9.66-.09,21.22c0,18.5.07,21,.31,21.18s9.38,3.16,20.52,6.84,20.37,6.77,20.52,6.87.62,0,1.42-.31c.64-.25,4.19-1.62,7.91-3l16.93-6.46c8.76-3.36,10.26-3.88,10.75-3.76a35.42,35.42,0,0,0,8.92.78c6.25,0,8.81-.54,14.74-2.94a92.93,92.93,0,0,1,9-3.34,238.28,238.28,0,0,1,24.88-4,85,85,0,0,1,8.61-.36l1.07.11.76,4.73c.8,4.92,1.74,10.49,1.9,11.17.08.35.22.41.89.41s.8,0,.71-.4c0-.22-.29-1.71-.54-3.33-.72-4.71-3-17.93-3.39-19.33-.09-.36,0-.46,1-.88a69.57,69.57,0,0,0,11.55-6.44,31.16,31.16,0,0,0,7.61-8.56c.64-1.26,1.48-4.58,1.23-4.83a2.35,2.35,0,0,1-.17-1c0-2-2.17-10-3.33-12.28-.13-.27-.18-.48-.09-.48A14.32,14.32,0,0,0,548.68,162.63Zm-98.75-13.75c.87-3.23,2.1-7.86,2.73-10.31s1.51-5.72,2-7.28,1.13-4.16,1.53-5.78l.92-3.64c.18-.69.21-.62,1.13,3,.52,2.06,1.42,5.11,2,6.82,1.29,3.71,1.32,3.27-.6,9.12-1.2,3.67-3.66,11.6-4.11,13.27-.14.51-.28.64-.8.75a35.27,35.27,0,0,1-6.37.07C448.34,154.83,449.05,152.12,449.93,148.88Zm-14.62,4.94c.28.06,2.62.47,5.21.92s5.14.85,5.67.89a16.47,16.47,0,0,1,2,.35c.6.15,2.36.47,3.93.71l4.35.7c.83.15,1.75.3,2,.34l8.44,1.44c4.35.75,10.06,1.72,12.7,2.16s4.92.84,5.07.9.23.11,0,.19l-3.52,1.24L478,164.79l-3-.44c-8.76-1.32-16.59-2.52-23.66-3.64-4.36-.69-9.43-1.45-11.29-1.71l-4.26-.58-.89-.13-.05-2.28-.05-2.29Zm-39.47,20,11.81-4.58c5.33-2.07,12.81-5,16.65-6.42s7.7-2.95,8.62-3.33a7.46,7.46,0,0,1,2.09-.61c.25,0,2,.34,4,.68s7.55,1.23,12.44,2,10.88,1.66,13.32,2.05l6.84,1.07c1.32.19,2.9.45,3.51.56l1.11.22-9.73,3.36c-5.35,1.84-13.08,4.55-17.19,6s-10.8,3.81-14.88,5.21L427,182.54l-4.92-1.16-15.67-3.73-11.73-2.8-1-.23Zm29.22,51.71c0,1.21-.06,1.64-.23,1.64s-7.42-2.39-16.21-5.31-17.79-5.88-20-6.6l-4-1.29-.11-.64c-.06-.36-.1-2.88-.1-5.62,0-6.11-.3-27.48-.45-31.69-.1-2.92-.09-3.07.22-3s2.75.71,5.73,1.45c4.52,1.13,23.63,5.79,33.65,8.21l2.65.64-.12,3.74C425.83,194.29,425.06,223.87,425.06,225.5Zm124.21-51.13.92,3.23-.3,1.07a13.41,13.41,0,0,1-2.37,4.67,49.37,49.37,0,0,1-6.62,6.55A73.74,73.74,0,0,1,527.31,197a200.08,200.08,0,0,1-19.54,6.11,148,148,0,0,0-19.28,6.45c-9.12,3.69-10.49,4.15-13.95,4.6-2.08.27-11.3.29-12,0-.41-.15-.34-.2.8-.54a20.77,20.77,0,0,1,2.66-.58,37,37,0,0,0,8.19-2.73,37.42,37.42,0,0,0,7.46-5c1.39-1.4,1.85-2.2,1.85-3.23,0-2.33-3.12-3.46-7.76-2.8-1.15.16-2.69.45-3.43.64-2.57.65-3.62.75-4.92.44a5.87,5.87,0,0,1-1.43-.48c-.18-.15-.3-.14-.45,0-.56.55,1.79,1.61,3.57,1.61a20.42,20.42,0,0,0,3.42-.57,16.52,16.52,0,0,1,5.05-.57c2.51,0,2.72,0,3.56.43,1.84.93,1.92,2.3.23,3.92a5.69,5.69,0,0,1-1.07.88c-.16,0-5.67,2.27-11.42,4.71-4.42,1.86-6,2.49-14.39,5.68L440,221.58,428.53,226l-2.49.95-.05-.75c0-.41.11-7.17.31-15s.44-17.37.53-21.13.23-6.88.31-7,6.93-2.48,19.95-6.84c9.47-3.18,33.53-11.37,37.54-12.79l1.76-.62-.1,1.73c-.06,1-.19,5.45-.29,10-.21,9.32-.52,19.22-.6,19.31a12.05,12.05,0,0,1-1.73-.32c-3.08-.68-4.31-.43-9.93,2.06-5.19,2.29-8,3.46-8.26,3.46s-.27.09-.27.18c0,.59,2.3-.12,7.11-2.21,6.81-3,7.89-3.11,13.33-1.77a39.19,39.19,0,0,0,4.7.9l1.43.1,1.45-.9c2.18-1.33,8.35-5.59,12.67-8.74,7.59-5.53,15.59-10.73,18.35-11.93.85-.37,2.51-1,3.68-1.33a9.81,9.81,0,0,0,2.13-.8c0-.23-1.38-.17-2.56.11a3.89,3.89,0,0,1-1.13.19,23.59,23.59,0,0,1,2.89-3.61,31.81,31.81,0,0,1,12.17-7.61c1.23-.42,2.31-.76,2.41-.76a11.8,11.8,0,0,1,1.36,2.42A69.9,69.9,0,0,1,549.27,174.37ZM477,123.8a1.1,1.1,0,0,1-.48-1.14c0-.52.12-.83.34-1,.48-.34.75-.3,1.26.21a1.28,1.28,0,0,1-.14,2C477.53,124.16,477.46,124.15,477,123.8Zm-.16,6.24a.91.91,0,0,1,.91-.44,1.1,1.1,0,0,1,.41,2.12c-.41.23-.52.22-.93-.05A1.14,1.14,0,0,1,476.83,130Zm.91,7.62a1.43,1.43,0,0,1,.71-.42c.47,0,1.16.81,1.16,1.37a1,1,0,0,1-1.07,1.17A1.2,1.2,0,0,1,477.74,137.66Zm-.44-66.25a1.43,1.43,0,0,1-.43.71.86.86,0,0,1-1.45-.16c-.36-.51-.33-.76.17-1.26a1.52,1.52,0,0,1,.64-.44C476.53,70.26,477.3,71.09,477.3,71.41Zm-15.55,5.71c-.52-.52-.58-1-.18-1.43a.76.76,0,0,1,1.23.11,1.16,1.16,0,0,1,0,1.46C462.43,77.64,462.25,77.61,461.75,77.12Z"/></g></g></svg>