<svg xmlns="http://www.w3.org/2000/svg" viewBox="0 0 546.11 239.51"><defs><style>.cls-1{fill:#92c6ed;}.cls-2{fill:#231f20;}.cls-3{fill:#268edc;}.cls-4{fill:#fff;}.cls-5{fill:#f67a66;}</style></defs><title>Asset 1</title><g id="Layer_2" data-name="Layer 2"><g id="ARTWORK"><path class="cls-1" d="M96,3l-70.18,0-.11,36.52c-.07,20.08-.17,63.29-.24,96l-.11,59.49,20,.13c11,.07,69.53.11,130.07.07s111.39,0,113,.09l3,.15.13-38.87c.07-21.38.2-51.6.3-67.17.27-42.63.28-85.61,0-85.94s-.87-.3-2.59-.41C286.81,3,214.91,2.93,96,3ZM226.53,4H291l-.06,7.6c0,4.19-.1,7.65-.15,7.7s-51.91.31-157,.42l-106.94.1V3.71l67.6.12c37.17.06,96.62.12,132.08.13ZM56.13,37.27c7.17,0,19.93.1,28.37.1H99.85l-.12,14c-.06,7.69-.17,18.46-.23,24l-.12,10-8.91.12c-7.92.1-19,.27-40.89.62-3.76.06-6.87.08-6.91,0S42.58,75,42.58,61.55c0-21.67,0-24.48.26-24.44s6.12.1,13.29.16Zm216.8.21.46.12-.13,13.85c-.07,7.62-.18,18.41-.24,24l-.11,10.12-11,.09c-6,.05-18.92.16-28.66.26s-25.06.22-34.06.28l-16.37.12-.13-.49a9.62,9.62,0,0,1,0-2c.06-.81.18-8.87.28-17.91.21-19,.34-28.06.42-28.14s15.29-.11,33.92-.2c52-.23,55.1-.23,55.61-.11ZM99.72,153.69s.07,5,.13,11.09l.11,11.08L99,176c-2.79.27-20.86.67-37.48.82-10.42.1-19,.16-19,.12s0-3.84.13-8.48.19-9.89.19-11.69v-3.27l28.43.11c15.63.06,28.44.12,28.45.13Z"/><path class="cls-1" d="M45,9.21a3.49,3.49,0,0,1-4.84,3.35c-.46-.18-.79-.23-.94-.12s-.91.72-1.73,1.39c-1.35,1.1-1.56,1.21-2,1.07-.83-.29-.65-.67,1-2.05l1.73-1.44a1.67,1.67,0,0,0-.15-1,3.1,3.1,0,0,1,.36-2.88A3.21,3.21,0,0,1,40.3,6a5.45,5.45,0,0,1,2.86.08A3.54,3.54,0,0,1,45,9.21Z"/><path class="cls-2" d="M289.55,11.06,289.45,1l-.4-.06c-.23,0-.41.05-.41.18s-.09.11-.2-.09c-.25-.42-1.95-.39-1.95,0a3,3,0,0,0,1.81.46c.15-.09.19,1.86.14,7.52,0,4.2-.1,7.67-.15,7.72s-51.91.31-157,.42l-106.94.1V1.21L91,1.33c112.64.21,193.59.16,193.75-.1s.19-.45-.05-.6S225.9.51,154.31.53C36.34.56,24.17.54,24.17.28c0-.45-.7-.32-.8.14s-.22,44.72-.4,132.49l-.11,59.67,20.46.14c11.26.07,66.39.08,122.52,0s106.78,0,112.56,0,10.52.14,10.53.13.12-25.49.24-56.63.27-69.77.35-85.88S289.61,16.6,289.55,11.06Zm-1.33,43.26c-.06,20.08-.13,52.8-.16,72.72s-.06,42.48-.09,50.15l0,14-9.93.11c-5.46.07-64.81.14-131.88.16l-121.95,0,0-86.69.05-86.69L105.11,18l132-.14,51.19,0Z"/><path class="cls-3" d="M186.9,83l-2.82,1.47-.12-.82a5.56,5.56,0,0,1,0-1.41c.08-.46.62-35.22.64-41.86V38.8l20.08,0c11,0,30.42.08,43,.14l23,.1-3,1.6-10,5.33c-6.8,3.61-12.54,6.61-20.67,10.77-5.38,2.76-10,5.2-19.67,10.33-4.5,2.39-12.54,6.62-17.88,9.39Zm84.91-43.11c-.09,0-1.33.61-2.76,1.37l-10.69,5.5c-4.45,2.28-12.42,6.43-17.7,9.21-10.84,5.72-12.8,6.74-23.54,12.22-6.35,3.25-18,9.3-29.56,15.39l-2.33,1.23h2.24c5,0,58.76-.55,70.26-.71,6.77-.09,12.51-.15,12.75-.13.91.07.9.16,1.08-15.55.09-8,.22-17.74.29-21.57A68.38,68.38,0,0,0,271.81,39.88Z"/><path class="cls-3" d="M124.36,40.56c4-.09,16.87-.22,28.53-.3s21.33-.16,21.5-.17a.66.66,0,0,1,.5.22c.23.28.08.84-.23.82l-12,.1c-18.34.17-45.54.18-45.8,0C116.2,40.82,117.33,40.72,124.36,40.56ZM117,50c.2.06,8,0,17.4-.08s22.27-.18,28.66-.18,11.72,0,11.82-.1c.46-.29,0-1.26-.51-1.14-.07,0-.84.09-1.74.16s-13.65.24-28.39.36-26.95.3-27.18.38C116.58,49.62,116.55,49.88,117,50Zm55.7,6.81c-1,0-2.07,0-2.31,0-.81.1-19.39.42-36,.62-9,.1-16.53.23-16.76.28-.49.1-.53.54-.07.68.18.06,4.7,0,10-.07s18.08-.23,28.34-.3c19.81-.12,19.39-.1,18.87-.92C174.63,56.92,174.25,56.86,172.72,56.84Zm-.73,8.6-7.6.09c-19.68.15-45.31.47-46.34.56-1.4.13-1.76.47-.7.68.37.07,11.16,0,24-.1,28.85-.28,33.11-.35,33.31-.56a.42.42,0,0,0,0-.44C174.57,65.44,174.18,65.4,172,65.44Zm-31,8.83c-.2,0-5.61,0-12,.14s-11.86.19-12.09.24c-.47.11-.53.54-.11.69.17.07,4.73,0,10.12-.07L139.05,75c2.21,0,2.34-.05,2.34-.39A.34.34,0,0,0,141,74.27Z"/><path class="cls-3" d="M101,177a2.06,2.06,0,0,1-.09.69,1,1,0,0,1-1,0c-.22-.36-17.41-.38-41.86,0-15.62.22-16.47.2-16.68-.43-.14-.42.52-24.06.69-24.67.1-.38.61-.59.61-.25,0,.08,5.6.09,12.45,0,18.13-.15,45.36-.12,45.53.06s.19,5.52.26,12.12S101,176.76,101,177Z"/><path class="cls-4" d="M.09,45.09c-.16.38-.1,23.07.09,37.73L.35,95.13l9,.05c4.94,0,15.49,0,23.45-.14s16.71-.11,19.49,0,5.14.1,5.27.06c.66-.22,1.11-2.62,1.11-6a8.42,8.42,0,0,1,.12-1.94,5.17,5.17,0,0,1,.88.36c.74.35.74.35,1.48,2.73a109.68,109.68,0,0,1,3.62,15.61A136.69,136.69,0,0,0,70.89,130c.7,1.91,1.51,3.93,1.8,4.51a29.58,29.58,0,0,0,3.08,4.8,8,8,0,0,0,3.49,2.1l4,.92c3.54.84,10.08,2.17,24.44,5,9.22,1.79,17,3.42,17.3,3.63.08,0,.1.37,0,.73a49.75,49.75,0,0,0,.17,12.58q1.32,6.25,7.92,15.7c4.49,6.44,8.4,14.16,9.94,19.64a81,81,0,0,1,2.43,16.33c.07,2.48.16,3.44.33,3.56s6.73.12,16.13.06c8.74-.05,25.23-.1,36.62-.11l20.71,0-1.41-2.71c-6.88-13.14-8.67-17.12-11.54-25.55A179.84,179.84,0,0,1,200,168c-.91-4.55-1.55-8.7-1.35-8.78s4,1.07,10.94,3.21a72.6,72.6,0,0,0,9.2,2.42,26,26,0,0,0,6.72.3,17.4,17.4,0,0,0,6.2-2.75c2.83-2.09,8.84-8,16.95-16.77,3.82-4.12,6.75-6.8,8.24-7.58.43-.22,8.06-2.25,8.13-2.16s.07,5.76.13,12.77.17,12.8.26,12.89,9.49.2,22.16.25c12.09.05,25.33.13,29.39.18,6.73.08,7.4.06,7.64-.22s.27-7.33,0-47.39l-.12-20.13-.45-.18a26.06,26.06,0,0,0-4.5-.06c-2.22.06-13.09.2-24.16.31s-21.14.23-22.37.29-3.33.15-4.65.19-2.44.11-2.48.15-.42,7.32-.43,13c0,5.07-.05,6.33-.24,6.33a16.24,16.24,0,0,0-2.19,1,19.14,19.14,0,0,0-4.67,3.12C254,122,246.27,128.1,245.9,128.1c-.12,0-.21.06-.21.14a72.89,72.89,0,0,1-6,4.83c-.79.6-2.77,2-4.4,3.12-5.77,4-8.3,6-9.71,7.9l-.46.61-1.16-.7c-.64-.38-3.3-2.12-5.92-3.87-5-3.35-8.57-5.64-11.79-7.64-1.08-.67-3.13-2-4.59-2.9L199,127.9l.59-1.29a14,14,0,0,0,1.24-6.15,12.76,12.76,0,0,0-1.26-5.82c-1.23-2.69-2.42-4.19-6.54-8.27-3.12-3.11-4.13-4.23-5.08-5.67-1.46-2.21-1.84-3-2.11-4.65s-.13-3.13.9-7.3c1.72-6.93,1.61-9.65-.48-12.79-.5-.74-.51-.83-.35-1.89.19-1.29,0-2.06-.71-2.51s-1-.18-.88.9a11,11,0,0,0,.2,1.24c.07.23-.16.15-.94-.31a11.54,11.54,0,0,0-1.94-.91,63.48,63.48,0,0,1-8-3.45c-1.46-1-2-2-3.25-5.86-1.19-3.72-1.82-5-3.26-6.83-1.71-2.13-3.88-3.43-7.25-4.35a18.42,18.42,0,0,0-7.89-.18,10.9,10.9,0,0,0-5.77,4.12c-3.24,4.1-4.64,10.18-3.29,14.32a19.54,19.54,0,0,0,2.3,4.57c.33.3.32.38-.55,2.32-.5,1.1-1.41,3.24-2,4.75-1.36,3.29-2.06,4.28-4.08,5.78-2.5,1.84-2.68,2-3,2.59a3,3,0,0,0-.34,1.26,1.38,1.38,0,0,0,.65,1.26c2.21,1.9,2.45,2.37,2.51,5,.18,6.88.47,9.39,1.22,10.65a5.94,5.94,0,0,0,4.62,3c.58.05,1,.16,1,.23a5.7,5.7,0,0,0,.18,1.37,45.51,45.51,0,0,1,.89,6c-.09.1-2.6.16-22.89.55-11.52.22-21.34.52-23.39.71a4.14,4.14,0,0,1-1.57,0,8,8,0,0,0-2.38,0,19.25,19.25,0,0,1-2.83.06c-.56-.08-.64-.17-.77-.78a47.59,47.59,0,0,0-2.08-5.87c-2.32-5.8-3.73-8.68-9.65-19.68-1.7-3.16-3.64-6.8-4.31-8.08s-1.79-3.34-2.48-4.58-1.62-3-2.06-3.87c-1.2-2.4-7.06-12.17-8.39-14a10.24,10.24,0,0,0-2.14-2.23l-1-.7V44.82h-30c-26.52,0-30,0-30.14.27Z"/><path class="cls-3" d="M35.33,57.76a65.77,65.77,0,0,0,4.19-8.63,13.25,13.25,0,0,1,.58-1.52s3.12-.14,6.84-.19l8.34-.14a6.69,6.69,0,0,1,1.57.06c0,.17-2,4.11-2.84,5.57-2,3.45-6.19,9.61-6.59,9.61-.13,0-1.4-.28-2.82-.61-6.77-1.61-8.22-1.93-9.2-2.08a7.71,7.71,0,0,1-1.11-.22A18,18,0,0,1,35.33,57.76ZM21.56,51.54,21,52.1h1.13c1,0,1.19.06,1.65.52.76.76.73,1.89-.1,3.54-1.53,3.07-7.07,8.46-9.31,9.07a1.15,1.15,0,0,1-1.15-.11c-.41-.27-.45-.39-.38-1.34.12-1.66,2-5.14,4.48-8.5a16,16,0,0,0,1-1.49A14.61,14.61,0,0,0,15,55.72c-4.42,3-8.91,8.2-10.69,12.32l-.63,1.45v5.66l.61.58C5.8,77.16,8,77,11.49,75.29c3.15-1.57,7.38-5,11.34-9.3,6.61-7.12,10.49-13.47,10.49-17.2V47.61l-3.37,0c-1.85,0-3.53.06-3.73.11A35.57,35.57,0,0,0,21.56,51.54ZM13.84,79.87a49.12,49.12,0,0,0,9.57-8l1.26-1.4-.54-.4c-.74-.55-.72-1.45,0-2.6,1.31-2,4.17-3.58,5-2.79.14.15.42-.1,1-.93.79-1.08.81-1.15.52-1.47-1.08-1.2,1-4.46,2.84-4.55.72,0,.76-.07,1.54-1.44a54,54,0,0,0,3.23-6.59c.43-1.08.78-2,.78-2a20.25,20.25,0,0,0-2.39-.07h-2.4l-.11,1.47c-.18,2.49-1.44,5.48-3.84,9.13C26.49,64,19.05,71.67,14.14,74.87c-4,2.59-7.46,3.37-9.64,2.15l-.83-.47v5.38l.48.19C6.3,83,10.14,82.08,13.84,79.87ZM57.68,47.66s-.39.74-.82,1.67a81.35,81.35,0,0,1-7.07,11.9c-.75,1-1.12,1.69-1,1.74l2.72.9A14.42,14.42,0,0,1,56.22,66l.9.62.13-3.2C57.41,59.61,57.73,47.71,57.68,47.66Zm-41.25,1.7c.93-.69,1.78-1.33,1.86-1.41.3-.26-3.52-.17-4.11.09-.89.41-6.63,6.79-9.57,10.65L3.49,60.17v3.32l1.27-1.87A51.23,51.23,0,0,1,16.43,49.36ZM4.1,66.15c1.65-3.5,6.67-8.83,10.76-11.43a30.4,30.4,0,0,1,4.26-2.18,10,10,0,0,0,2-1.56c.83-.79,2-1.83,2.68-2.31l1.16-.88H20.29l-1.44,1A53.29,53.29,0,0,0,5.66,62.16c-1.73,2.55-2.19,3.44-2.14,4.13S3.72,67,4.1,66.15ZM10.63,50l1.88-2H8.11c-3.52,0-4.42.05-4.49.24s-.11,2.48-.12,5.23l0,5,1.47-1.83C6.82,54.23,8.29,52.53,10.63,50ZM41,66.83l3,.22.32-.4c.44-.53.41-.65-.16-.8-.9-.22-5.7-2-6.61-2.47-.5-.25-1.68-.87-2.65-1.39s-1.75-.85-1.75-.74a2.66,2.66,0,0,1-.55.88c-.45.55-3.41,4.54-3.41,4.59s2,0,4.45,0S39.37,66.71,41,66.83Zm4.51-.09c-.34.4-.13.5.73.35s.72-.25-.13-.5A.57.57,0,0,0,45.54,66.74Zm-18.87,3c0,.09.12.12.27.07s.27-.13.27-.17-.13-.07-.27-.07S26.67,69.61,26.67,69.7Zm4.26,0a.69.69,0,0,0,.45,0c.13-.05,0-.09-.22-.09S30.81,69.6,30.93,69.65ZM28.1,80.94c0-.78.2-1,.89-1,1,0,1.86-.5,3.79-2,2.85-2.3,4.56-3.91,4.29-4.06a17.29,17.29,0,0,0-2.14-.44c-1-.17-2.57-.5-3.41-.74a18,18,0,0,0-2.34-.54c-.75-.1-.85-.06-1.44.56a5.38,5.38,0,0,1-3.1,1.71c-.56,0-.74-.1-1-.52l-.3-.52-2,1.87C15.78,80.59,10,83.59,5.83,83.31a11.68,11.68,0,0,1-1.75-.22L3.69,83l0,4.16,0,4.16.72-.12c6.38-1,14.3-4.1,21.25-8.35C27.69,81.62,28.1,81.29,28.1,80.94ZM33,79.19a37.28,37.28,0,0,0,4.78-.77l4.26-1,3.28-.78-1-.42c-1.45-.6-5.39-2-5.55-2a7.87,7.87,0,0,0-1.31,1.08c-.65.59-1.92,1.69-2.83,2.45A11.14,11.14,0,0,0,33,79.19Zm17.14,5a11.67,11.67,0,0,0-1.64-.82,4.74,4.74,0,0,1-1-.5,9.45,9.45,0,0,0-1.44-.71c-.84-.29-3-.24-6,.14-1.39.18-3.85.42-5.5.55l-3,.24-1.36-.45-1.37-.45L27.51,83a63.76,63.76,0,0,1-14.95,7.24,57.91,57.91,0,0,1-6,1.54c-.54.12,7.46.17,24.21.14,23.73,0,25-.05,25.33-.36s.33-.71.39-2.72l.06-2.4-.77-.13A22.53,22.53,0,0,1,50.17,84.18Z"/><path class="cls-5" d="M317.13,99c2.66-1.6,3.06-1.79,3.77-1.77a1.64,1.64,0,0,1,.92.23,21.58,21.58,0,0,1,.09,3.38l-.06,3.18-5.06,2.51a266.07,266.07,0,0,0-27.8,16l-3.68,2.42-1.59-.15-1.59-.15,2.69-2.29A249,249,0,0,1,317.13,99Zm-44.67,16.23c3.74-2.66,13.8-9.43,17.34-11.66,1.38-.87,4.25-2.62,6.37-3.88,3.45-2.06,3.78-2.3,3.14-2.26-.39,0-3.6.09-7.12.14l-6.42.09-3.09,2.42c-3.45,2.71-7.55,6.19-11,9.29l-2.26,2.07-.13,3c-.07,1.64-.1,3-.07,3S270.73,116.45,272.46,115.22Zm-3.14,4.54,2.06-.3,4.12-.61,2-.31,2-1.66c6-5,14.71-11.65,21-16.1,1.89-1.32,3.73-2.62,4.12-2.9l.71-.5h-3.77l-3.32,1.94c-1.81,1.06-4.61,2.74-6.19,3.7-6.34,3.9-22.63,14.93-22.83,15.47a2.11,2.11,0,0,0,0,.75Zm13.83-5c-2,1.6-3.8,3.08-4,3.3l-.45.4.92-.1c.78-.09,1.29-.34,3.23-1.66a285.87,285.87,0,0,1,31.55-18.3l2-1h-9.88l-3.12,2.17C296.66,104.21,289.42,109.65,283.15,114.72Zm1.47,1.79c-2.3,1.53-2.59,1.78-2.36,2s.33.51-.15,1a3,3,0,0,1-1.56.72,13.55,13.55,0,0,0-1.53.45,7.9,7.9,0,0,1-.85.34,41,41,0,0,0-3.88,2.62,29.24,29.24,0,0,0,5.09.71l2,.12,2.88-2.46a251.24,251.24,0,0,1,32.88-23.75c2.76-1.64,1.26-1-3.59,1.45A278.34,278.34,0,0,0,284.62,116.51Zm-1.74-17.33c.94-.72,1.79-1.39,1.88-1.47s-3.23-.13-7.4-.11l-7.56.05-.11,1.61c-.06.89-.15,3.84-.21,6.55l-.11,4.93,2-1.8C274.9,105.65,279.32,101.92,282.88,99.18Zm-4.1,36.31,1.12-.93c14.28-11.82,24.85-19.46,37.48-27.09,4.53-2.73,4.74-2.88,2.24-1.62-10.31,5.21-20.3,10.85-27.85,15.72-4.94,3.18-5.17,3.36-5.24,3.84a2.29,2.29,0,0,1-2.34,1.61c-.54,0-1,.22-2.12,1-.79.55-1.51,1.07-1.6,1.16s1.55.73,2.23.79a.76.76,0,0,1,.32,1.44c-.31.22-.95.27-3.25.27h-2.85l-1.08.83-1.08.83,2,1.07Zm39-27.63A287.91,287.91,0,0,0,282.92,133a27.06,27.06,0,0,0-3.35,3c.21.35-.44,1.06-1,1.06s-1.14.54-3.52,2.65c-4.5,4-4.5,4-1.89,2.06a263.1,263.1,0,0,1,34.3-21.33c3.65-1.92,10.94-5.48,13.73-6.7l.86-.37-.13-3.92c-.07-2.16-.14-3.93-.15-4S320,106.55,317.81,107.86ZM293,133.13c-3.27,2.32-12.66,9.32-12.66,9.43s1.27-.76,2.83-1.78c3.63-2.37,8.66-5.37,13-7.76,3.92-2.15,18.52-9.43,22.89-11.41l2.93-1.32v-2.65a12.48,12.48,0,0,0-.14-2.65c-.07,0-1.3.65-2.74,1.45C311.42,120.78,301.67,127,293,133.13Zm-21.09,15.09c14.77-12,31.24-23.54,44.4-31,2.24-1.27,2.65-1.54,2.39-1.54-.05,0-2.54,1.24-5.54,2.76a266.47,266.47,0,0,0-40.59,24.86l-3.91,2.93v1.39c0,.77-.06,1.83-.12,2.38C268.42,151.18,268.09,151.36,271.94,148.22ZM322,121.53s-1.62.7-3.54,1.6c-4.66,2.18-16.19,7.94-20.15,10.06a225.6,225.6,0,0,0-28.37,18l-1.34,1-.09,2.46a14.52,14.52,0,0,0,0,2.63,1,1,0,0,1,.14.52c0,.35.19.35,20.78.22,23.79-.14,32-.26,32.36-.44s.23-3.24.22-18.08C322,129.65,322,121.54,322,121.53Zm-47.27.79c.14-.22-.15-.17-.74.14s-1.19.81-1.07,1S274.53,122.64,274.73,122.32Zm4.54,6.68a12.67,12.67,0,0,0,2.53-1.73,7.28,7.28,0,0,0-2.15.09,3.31,3.31,0,0,0-1.32.67l-.68.56.7.2A5.73,5.73,0,0,0,279.27,129Zm-1.78-1.34c-.15,0-.66.12-1.17.18l-.9.12.81.24c.78.23.83.22,1.26-.2.25-.24.41-.43.36-.42ZM270,131.51c.14.07.81.32,1.48.55l1.22.43.37-.39.38-.39-.43-.09A11.31,11.31,0,0,0,270,131.51Zm4.92.89a5.88,5.88,0,0,0,.81-.64,1.71,1.71,0,0,0-.67-.06,2,2,0,0,0-1.3.52l-.63.52.48.12C274,133,274.23,132.87,274.88,132.4Zm-1.36,7.67,3.63-3.22-2-.59c-1.12-.33-2.07-.59-2.12-.59s-.55.16-1.12.35a7.33,7.33,0,0,0-2,1.1l-1,.77-.12,1.71c-.06.93-.11,2.38-.11,3.2v1.49l.6-.5C269.62,143.51,271.53,141.83,273.52,140.07Zm-4.21-3.34c.18-.2.24-.36.14-.36a.71.71,0,0,0-.41.27C268.7,137.05,269,137.13,269.31,136.73Z"/><path class="cls-2" d="M77.12,140.35a9.13,9.13,0,0,1-3-3.37,31.68,31.68,0,0,1-3.24-7,136.69,136.69,0,0,1-6.14-24.11,109.68,109.68,0,0,0-3.62-15.61c-.74-2.38-.74-2.38-1.48-2.73a5.17,5.17,0,0,0-.88-.36,8.42,8.42,0,0,0-.12,1.94c0,3.37-.45,5.77-1.11,6-.13,0-2.5,0-5.27-.06s-11.5-.07-19.49,0-18.51.16-23.45.14l-9-.05L.18,82.82C0,68.2-.07,45.47.09,45.09s3.62-.27,30.14-.27h30V63.74l.45,1.77c.24,1,.53,2,.64,2.27a8.74,8.74,0,0,0,1.71,1.76A5.6,5.6,0,0,1,64.48,71c-.17.28-1.91-.61-5.18-2.66-5.48-3.43-8.73-4.8-13.91-5.87-3.74-.77-10.76-2.35-12-2.72-.59-.17-.92-.35-.88-.49s0-.28,4.17.48c1.89.34,4.82.79,6.56,1s3.81.5,4.63.64a28.9,28.9,0,0,1,10.32,4.32l1.45,1-.12-3.74c-.06-2.06-.16-6.69-.23-10.32L59.13,46l-.79-.11c-.43-.06-7.6-.13-15.92-.15s-21.07-.08-28.33-.14L.85,45.53s0,1.07.13,2.38.26,10.8.36,21.11.24,20.23.3,22l.11,3.31,3-.12c1.64-.06,12-.16,23.11-.21,17.33-.09,28.75-.3,29-.54a13.15,13.15,0,0,0-1.88-3.34,19.24,19.24,0,0,0-10.66-7.69L43,82.12l-3.68.53a48.46,48.46,0,0,1-5.46.53c-2.81,0-5-.64-5.62-1.65-.33-.53,0-.54,1.41,0,2.16.72,4.51.77,8.82.19,4-.54,6.06-.59,7.44-.17.52.15,2.46,1,4.3,1.77a30.79,30.79,0,0,0,7,2.52c3.5.85,3.46.81,4.92,4.67,2,5.34,2.73,8,4.06,15.36a183.57,183.57,0,0,0,6.61,25.34c1.79,5.08,3.21,7.66,4.89,8.92C79.19,141.2,78.72,141.43,77.12,140.35Zm151.21,5.45c.3.45.21,1-.16,1-.63,0-9.43-4.92-17.16-9.58s-12.54-7.49-12.74-7.49-.57,4.47-.68,9.16c-.11,5,0,5.94,1,9a21.9,21.9,0,0,0,10.54,12.81,63.28,63.28,0,0,0,9.83,3c3.84.82,6.87,1,8.39.55.56-.17.52.17-.06.43a12.94,12.94,0,0,1-5,.49c-3.73-.24-5.9-.72-12.71-2.8-7-2.14-10.81-3.26-10.94-3.21s.44,4.23,1.35,8.78a178.38,178.38,0,0,0,6.37,23.09c2.86,8.42,4.77,12.65,11.6,25.69,1.32,2.52,1.35,2.6.92,2.6s-.68-.41-2.16-2.92c-7.62-13-11.48-21.58-15.14-33.69a145.67,145.67,0,0,1-5.75-28.18,156.38,156.38,0,0,1-.28-17.59c.12-2.37.27-4.5.33-4.73s-.18-.2-1.59.87A26.43,26.43,0,0,1,182.71,138a53.09,53.09,0,0,1-10.69-.1,21.24,21.24,0,0,1-12.39-6.61,18.62,18.62,0,0,1-4.61-8.73l-.48-2-.65,0c-.35,0-12.58,0-27.19,0-18.78,0-26.55,0-26.55-.15s.26-.23.58-.28c.86-.14,11-.43,22.6-.65,20.29-.39,22.8-.45,22.89-.55a45.75,45.75,0,0,0-.89-6,5.7,5.7,0,0,1-.18-1.37c0-.07-.38-.18-1-.23a5.94,5.94,0,0,1-4.62-3c-.75-1.26-1-3.77-1.22-10.65-.06-2.59-.3-3.06-2.51-5a1.35,1.35,0,0,1-.65-1.28A3.26,3.26,0,0,1,136.81,89c2.49-1.85,3.61-2.81,4.14-3.57a28.46,28.46,0,0,0,1.71-3.56c.61-1.49,1.52-3.61,2-4.71.87-1.94.88-2,.55-2.32a19.16,19.16,0,0,1-2.3-4.57c-1.32-4,0-9.9,3-14,2.1-2.78,4.21-4.19,7.07-4.71a19.75,19.75,0,0,1,6.83.44,12.75,12.75,0,0,1,7.25,4.32c1.46,1.82,2.09,3.13,3.28,6.85,1.26,3.91,1.79,4.88,3.25,5.86a63.48,63.48,0,0,0,8,3.45,11.54,11.54,0,0,1,1.94.91c.78.46,1,.54.94.31a11,11,0,0,1-.2-1.24c-.13-1.08.15-1.37.88-.9s.9,1.22.71,2.51c-.16,1.06-.15,1.15.35,1.89,2.09,3.14,2.2,5.86.48,12.79-1,4.17-1.2,5.57-.9,7.3s.65,2.44,2.11,4.65c.95,1.44,2,2.56,5.08,5.67,4.12,4.08,5.31,5.58,6.54,8.27a12.78,12.78,0,0,1,1.26,5.83,14,14,0,0,1-1.24,6.14L199,127.9l2.63,1.69c1.45.93,3.93,2.5,5.51,3.48,3.59,2.24,8.87,5.68,12.45,8.11,1.51,1,3.49,2.31,4.39,2.84,1.37.81,1.67.92,1.8.7a.62.62,0,0,1,.51-.27A4,4,0,0,1,228.33,145.8Zm-68-53.65c0-.85-.16-1-1.16-1.34a1.43,1.43,0,0,0-1.62.18,4.84,4.84,0,0,0-1,.73c-.36.44-.48.32-.62-.58a15.32,15.32,0,0,0-.49-1.94,7.37,7.37,0,0,1,.48-5.46c.66-1.4.66-1.43.38-2s-2.1-1.8-4.55-2.74a21.38,21.38,0,0,1-4.31-2.1,4.77,4.77,0,0,0-.86-.51c-.24,0-1.82,3.32-3.07,6.43A26.64,26.64,0,0,1,142,86.08a13.39,13.39,0,0,1-4.13,3.65c-2.14,1.27-2.26,1.74-.79,3a8.33,8.33,0,0,1,1.46,1.68c.44.75.49,1,.62,3.53.23,4.24.82,7.76,1.52,9.16a5.13,5.13,0,0,0,2.67,2.39c1.79.53,4.7.2,7.29-.83l.9-.35.2.43c.24.49.12.75-1.05,2.32a40.82,40.82,0,0,1-3.41,4c-.28.18-.29,1,0,2.68l.2,1.27,3.31-.09c1.81-.05,3.34-.12,3.38-.17s0-1.28-.12-2.77a72.93,72.93,0,0,1,.86-15.35c.27-1.31.31-1.38,1.56-2.6C158.74,95.76,160.34,93.36,160.34,92.15ZM50.74,67.48c0-.27-.46-.45-6.55-2.5-5.83-2-9.76-3.42-10.87-4l-1.13-.58c-.07,0-.13.06-.13.21a3.06,3.06,0,0,0,.77,1.06c.68.69,1.4,1.16,5.07,3.3l.9.53-2.34.12C30.12,66,26.2,66.42,25.27,67c-.75.43-.74.67,0,.53A60.71,60.71,0,0,1,35.38,67a70.56,70.56,0,0,1,9.43.38C49.76,67.87,50.74,67.9,50.74,67.48Zm41.69,53.07c.56,0-1.2-5.06-4-11.58-1.17-2.71-3.37-7-7.73-15.1-1.7-3.16-3.64-6.8-4.31-8.08s-1.79-3.34-2.48-4.58-1.62-3-2.07-3.87-2.2-4-3.91-6.82c-3.82-6.44-5.66-9.08-6.31-9.08-.13,0-.24.15-.24.31a5.9,5.9,0,0,0,.88,1.57c.48.7,2.14,3.44,3.71,6.12a91.42,91.42,0,0,0,5.52,8.84c.5.54,1,1.53,8.52,16.49,3.53,7,7.41,15,8.64,17.79C91.5,119.06,92.21,120.55,92.43,120.55ZM50.38,71.86c0-.29-.75-.5-3.55-1-7.1-1.2-12.1-1.78-14.59-1.68l-3.54.13a9.79,9.79,0,0,0-2.95.31c-.32.33-.05.38,2.66.49,2.39.1,8.39.64,16.22,1.46C49.27,72.09,50.38,72.14,50.38,71.86Zm-22,7.83c-.48.18-.38.44.18.44.27,0,2.51-.32,5-.72l6.83-1.09c1.3-.2,3.24-.56,4.35-.8,3.9-.84,4.23-1.3,1.49-2.11-6-1.77-11.79-3-14.07-3a12,12,0,0,1-4.38-.89c-.79-.47-1-.48-.78,0a4.44,4.44,0,0,0,2.65,1.62c1.33.38,11.72,3.89,11.84,4a16.65,16.65,0,0,1-2.3.48C35.81,78.18,28.79,79.54,28.41,79.69Zm158.49-4a4.54,4.54,0,0,1,1.15.74c.88.84,1.45.07.67-.92s-1.82-1.25-2.29-.79S186.2,75.44,186.9,75.74Zm137.77,43.41c-.11-17.48-.22-24.87-.36-25-.35-.28-.86-.3-4.87-.18-2.17.06-13,.2-24.07.31s-21.14.23-22.37.29-3.33.15-4.65.19-2.44.11-2.48.15-.42,7.32-.43,13c0,5.07-.05,6.33-.24,6.33a16.24,16.24,0,0,0-2.19,1,19.14,19.14,0,0,0-4.67,3.12C254,122,246.27,128.1,245.9,128.1c-.12,0-.21.06-.21.14a72.89,72.89,0,0,1-6,4.83c-.79.6-2.77,2-4.4,3.12-5.54,3.8-9.35,6.87-9.35,7.54,0,.33.18.22,1.3-.79a63.92,63.92,0,0,1,8.59-5.95c2-1.26,4.28-2.73,5-3.28,3.28-2.45,5.35-4.13,8.8-7.13,7.53-6.57,8.75-7.58,10-8.32,1.53-.9,5.37-2.44,5.73-2.31.18.07.25.39.25,1.07a2,2,0,0,1-.46,1.54,1.47,1.47,0,0,0-.41.76c.25.71,2.76.69,11.45-.12,4.87-.45,5.77-.6,5.77-1,0-.21.42-.22-5.08.09A77.46,77.46,0,0,0,267,119.4c-.35.09-.36,0-.37-3.37-.06-16.53-.07-20.52,0-20.58.24-.23,56.62-.39,56.85-.16s.38,28.05.45,47.71l.07,17.68-28.6-.08-28.61-.07-.11-4.85c-.07-2.68-.17-6.93-.24-9.49l-.11-4.65,1.13-1.06a13.57,13.57,0,0,1,5.59-2.95,11.82,11.82,0,0,1,3.93-.46c2.67,0,2.64-.2-.14-.95a36.43,36.43,0,0,0-11.11-1.18c-3.27.31-8,1.32-9.3,2-2.34,1.19-5,3.55-9.39,8.26-10.61,11.44-15.1,16.08-16.83,17.35-1.33,1-1.65,1.28-1.51,1.42s1.6-.52,3.08-1.61c2.77-2,8.83-8,16.89-16.73,3.82-4.12,6.75-6.8,8.24-7.58.43-.22,8.06-2.25,8.13-2.16s.07,5.76.13,12.77.17,12.8.26,12.89,9.49.2,22.16.25c12.09.05,25.33.13,29.39.18,6.73.08,7.4.06,7.63-.22S324.9,154.78,324.67,119.15Zm-46.53,3.14c.77-.52,2.05-1.31,2.81-1.73a3.89,3.89,0,0,0,1.39-1c0-.3-.07-.3-1,0-.61.23-3.34.88-12.12,2.87a7.32,7.32,0,0,0-1.51.45c-.58.53,6.59,1.8,12.11,2.15,4.22.26,6.71.19,6.78-.21s-.17-.32-1.52-.42a85.29,85.29,0,0,1-8.59-1c-.11-.11-.1-.16,0-.16A10.55,10.55,0,0,0,278.14,122.29ZM96.65,121.13c1.85,0,2.3-.15,1.95-.72-.22-.35-1.25-.42-3.39-.23-1,.08-1.27.18-1.31.41C93.82,121,94.48,121.12,96.65,121.13Zm50.2,95.75a44.18,44.18,0,0,0-.6-6.67c-.16-1.14-.43-3.27-.63-4.76-1.13-8.83-4.23-16.48-11-27.08-3.81-6-5.28-8.77-6.53-12.36-1.12-3.2-1.41-5.35-1.41-10.38v-4.35l1.06-1.13a51.47,51.47,0,0,0,7.09-9.89,41.68,41.68,0,0,0,3.76-11.17c.49-2.86.48-7.46,0-7.46-.09,0-.17.4-.17.88,0,4.7-2.9,11.57-7.27,17.18-3.08,4-8.2,7.72-11.47,8.4-1.13.24.09.45-23.39-4-6.67-1.26-15-2.68-15.74-2.68-2.11,0,5.23,1.58,27.15,5.84,9.22,1.79,17,3.42,17.3,3.63.08,0,.1.37,0,.73a49.75,49.75,0,0,0,.17,12.58q1.32,6.25,7.92,15.7c4.49,6.44,8.42,14.2,9.93,19.64a81.48,81.48,0,0,1,2.37,14.66c0,1,0,2.65.12,3.55l.11,1.64h.71c.58,0,.69-.05.61-.28A14.46,14.46,0,0,1,146.85,216.88Zm127.41-88.51c2.12.46,4.86,1.07,6.08,1.36a24.32,24.32,0,0,0,2.65.53c.69,0,.5-.33-.32-.56l-2.57-.7-1.8-.49,1.08-.21c4.2-.83,6.71-1.6,6.47-2-.07-.1-.35,0-.69.13-.5.27-1.26.3-6.23.27-3.11,0-6.94-.14-8.5-.27a11.77,11.77,0,0,0-2.94-.07C267.21,126.8,268,127,274.26,128.37Zm-6.94,2a1.47,1.47,0,0,0,.41.72,60.64,60.64,0,0,0,6,2.51c1.43.56,3.31,1.38,4.18,1.82a6.52,6.52,0,0,0,1.69.71c.29-.28-.3-.71-2.62-1.88-2.84-1.44-2.89-1.26.47-1.74a26.89,26.89,0,0,1,3.18-.27c1.45,0,2.44-.26,2.44-.64,0-.19-.19-.23-.78-.15a21.58,21.58,0,0,1-3.55-.27c-1.52-.2-4.38-.54-6.36-.73S268.42,130,268,130l-.79-.12ZM147,85.75a2.22,2.22,0,0,0,.5-1.56c0-.9,0-.92-.54-1a.92.92,0,0,0-.83.27,2.5,2.5,0,0,0-.69,1.8C145.43,86.56,146.2,86.79,147,85.75Zm8,10.44a.67.67,0,0,0,.38,1.15.71.71,0,0,0,.69-1.11A.68.68,0,0,0,155,96.19Zm-8,.94a5.73,5.73,0,0,1-3,2,1.9,1.9,0,0,0-.9.33c-.62.76.91,1.62,1.94,1.09,1.27-.66,3.18-3,3.07-3.73S147.72,96.26,147,97.13Z"/><path class="cls-5" d="M519.35,20.67l-.1-1.12-1.2,0a7.42,7.42,0,0,0-1.38,0c-.1,0-3.19.23-6.9.42-8.83.47-30.76,1.7-33.72,1.89a22.54,22.54,0,0,0-6.21,1.28C449.8,29,435.44,36.81,420,50.41l-2.36,2.08,12.44,0,12.43,0,1-.91c6.32-5.51,14.07-10.07,20.32-11.95a31.15,31.15,0,0,1,10.31-1.39c3.31.16,5.21.73,6.56,2,2.28,2.06,2.15,5.48-.41,11l-.78,1.67h38.53l.48-.42.48-.42.09-5.49C519.38,28.34,519.45,21.67,519.35,20.67Zm-28.07,8.41a2.84,2.84,0,0,1,2.09-.2,2.08,2.08,0,0,1,.79,1.72,2,2,0,0,1-1.71,1.8A1.83,1.83,0,0,1,491.28,29.08Zm3.49,16.6c-.91,1.73-3.3,1.58-3.64-.23a2.11,2.11,0,0,1,.8-2,1.58,1.58,0,0,1,2.06-.32A1.74,1.74,0,0,1,494.77,45.68Zm3-6.56a1.73,1.73,0,0,1-1.14-2.84,1.53,1.53,0,0,1,1.81-.24,1.71,1.71,0,0,1,1.06,1.53A2.21,2.21,0,0,1,497.78,39.12ZM419.26,49.39c-1.12,1-2.38,2.17-2.77,2.51l-.72.62-10.32.09-10.32.09,1.17-1.23a127,127,0,0,1,35-26.27l1.72-.86,9.57-.55c11.64-.66,17.83-1,20.7-1.21l2.76-.16c.35,0-1,.51-3.19,1.25a110.9,110.9,0,0,0-16.47,6.84c-2,1-4.8,2.5-6.13,3.28A127.79,127.79,0,0,0,419.26,49.39Zm-21.94-.51-3.62,3.71h-5.35c-3,0-5.56-.06-5.83-.13l-.48-.13,1.53-2.07a117.32,117.32,0,0,1,23-22.83l2.19-1.66,10.3-.62,10.35-.65s0,0,0,0-1.1.66-2.44,1.4a121.06,121.06,0,0,0-24.31,17.59C401.75,44.42,399.31,46.85,397.32,48.88Zm-5.44-10.64A97.27,97.27,0,0,0,380.5,51.76l-.43.64H377.2a26.69,26.69,0,0,0-3.15.11c-.24.09-.27-.12-.27-1.6,0-.93.08-3.22.17-5.06.43-8.35.68-15.55.58-16.78s-.1-1.33.27-1.33,16.26-.94,24.5-1.45l6.64-.42c.43,0,.43,0-2.93,2.58A104.14,104.14,0,0,0,391.88,38.24Zm87,12.21-1.12,2.3H443.89l.6-.52A71.24,71.24,0,0,1,459,42.76a37.39,37.39,0,0,1,11.29-3.26c6-.61,9.94.53,10.61,3.07Q481.54,45,478.88,50.45Z"/><path class="cls-4" d="M472.72,61.28a16.54,16.54,0,0,0-1.88,2.6c-.76,1.36-.87,1.48-1.12,1.25a8.45,8.45,0,0,0-1.65-.81c-4.25-1.71-9.48,0-12.51,4.12-2.28,3.08-4,8.28-4.47,13.83a147.47,147.47,0,0,0,.08,15.7c.31,6.35.36,15.45.11,18.28-.1,1.1-.3,3-.45,4.23a46,46,0,0,0-.28,9.14,19.74,19.74,0,0,0,3.34,8.17l.74,1-.73,2.36c-1.22,3.92-2.6,9.15-3.42,12.9-.43,1.95-1,4.53-1.3,5.71s-.59,2.58-.68,3.11c-.38,2.22-.85,5.16-1,6l-.12.92-.71-.11c-.4-.07-3.24-.61-6.35-1.23-5.26-1-5.66-1.09-6.12-.85-.27.14-7.17,2.75-15.33,5.79s-19.68,7.38-25.61,9.64-11.22,4.23-11.76,4.4a2.69,2.69,0,0,0-1.06.51,33.54,33.54,0,0,0,.25,3.38c.18,1.76.41,5.74.5,8.87s.33,9.33.52,13.8.35,9.23.36,10.61c0,3.41.06,3.5,1,3.63.43.06,3,.78,5.78,1.61s9.38,2.75,14.74,4.27,11.76,3.35,14.23,4.07c4.95,1.43,5.76,1.58,6.06,1.16.11-.15,7.9-3.07,17.3-6.49l17.1-6.22,1.85.53A30.42,30.42,0,0,0,471,228.51a40.69,40.69,0,0,0,13.73-4,85.36,85.36,0,0,1,14.78-5.83l2.76-.83,16.12-.12c8.87-.07,16.15-.14,16.17-.16s-.37-1-.89-2.19a48.57,48.57,0,0,1-2.38-7.23c0-.39.12-.51,1.85-1.3a33,33,0,0,0,9.34-6.07c1.33-1.29,1.59-1.63,1.76-2.35.44-1.83.12-8.45-.61-12.61-.33-1.86-1.32-6.22-1.69-7.42a8,8,0,0,1-.27-1,5.24,5.24,0,0,1,1.31-.73c2.13-1,3.18-2,3.18-3.11,0-.82-2.71-8.23-4.84-13.27a236.82,236.82,0,0,0-11.83-24.26c-1.46-2.47-5.06-8-6-9.31a26.93,26.93,0,0,0-5.52-5.58l-1.57-1a12.33,12.33,0,0,1,.13-1.36c.31-2.5-.31-5-2.24-9A44.93,44.93,0,0,0,506,98.49a25.84,25.84,0,0,1-6-9.66c-.24-.71-.79-3-1.24-5.09a35.27,35.27,0,0,0-2.53-8.28c-2.68-5.33-7.25-10.39-10.92-12.1A12.78,12.78,0,0,0,479.36,62c-2.23,0-3,.19-6.1,1.58a10.72,10.72,0,0,1-1.76.69,14.43,14.43,0,0,1,2.64-3.09c.48-.41.84-.8.8-.87s-.32-.13-.63-.13-.75.21-1.59,1.08Z"/><path class="cls-1" d="M407.89,190.7l-5.69,2.85-3.9-.89c-5-1.14-5.88-1.41-5.82-1.7a25.28,25.28,0,0,1,3.84-1.71c2.09-.81,8.72-3.44,14.76-5.83s13.08-5.18,15.69-6.18,5.67-2.2,6.8-2.67,2.11-.86,2.16-.87,7.8,1.54,8.11,1.65a20.79,20.79,0,0,1-3.63,1.43A248.8,248.8,0,0,0,407.89,190.7Zm41-12.36c2.09-.59,3.82-1.09,3.84-1.12s-1.38-.33-3.1-.68l-3.41-.7a47.8,47.8,0,0,0-4.91,1.53,250.57,250.57,0,0,0-31.12,13.15c-2.41,1.18-4.89,2.42-5.52,2.77l-1.13.64.53.14c.46.11,1.14-.12,4.66-1.61A330.33,330.33,0,0,1,448.92,178.34Zm-2.5,3.36c3.59-1.42,9.39-3.54,9.66-3.54a.16.16,0,0,0,.17-.17c0-.09-.15-.17-.32-.17a2.25,2.25,0,0,1-.56-.07,15.4,15.4,0,0,0-2.57.61,385.93,385.93,0,0,0-43.08,14.93l-3.17,1.31,4.05,1,4,1,5.4-2.8A266.53,266.53,0,0,1,446.42,181.7Zm23.16-1c-.36,0-2.86-.56-5.57-1.13-5.32-1.12-6-1.24-6.38-1.09L453.32,180c-6.22,2.26-12.12,4.66-18.71,7.64-3.9,1.76-12.77,6.06-16.11,7.81l-2.81,1.47,1.61.36,3.88.91,2.27.54,2.82-1.08c1.55-.59,4.22-1.58,5.92-2.19,6.09-2.17,8.08-2.92,19.49-7.31,17.06-6.55,16.68-6.4,16.77-6.74s.15-.26.72-.07c.74.26,1.05.18,1.05-.25C470.22,180.85,470.06,180.75,469.58,180.67Z"/><path class="cls-2" d="M469.06,222.77l2.2-.78-.25.46a7.42,7.42,0,0,1-2.75,2.38c-.8.5-1.25.87-1.09.9.65.13,3.29-.8,5.55-1.94,5.3-2.68,7.78-4.82,9.48-8.18a3.9,3.9,0,0,0,.44-1.38c0-.78-.84-1.64-1.93-2-1.73-.53-2.45-.52-5.92,0-5.41.89-5.43.89-7,.63a8.47,8.47,0,0,1-2.26-.72c-1-.53-1.23-.47-.8.19s2.12,1.39,3.63,1.64c2.36.39,4.51.86,11.43,2.5.35.08.33.13-.35.74-1.39,1.28-2.31,1.72-7,3.44L463,224.21c-2.61,1-7.42,2.73-10.69,3.92l-11.13,4-11,4c-3.17,1.15-5.91,2.14-6.08,2.18s-.3-.92-.3-19.55V199.12l3-1.11,8-3,14.14-5.29c5-1.88,12.63-4.75,16.91-6.38,11-4.22,14.95-5.69,15.07-5.62s0,2.61,0,5.73-.08,9.3,0,13.73l.1,8.06h-.36a48.27,48.27,0,0,0-7.26,2.42c-1.95.74-4.74,1.67-6.21,2.07l-2.89.79a.34.34,0,0,0-.22.31c0,.8,5.52-.46,11-2.48,6-2.24,6.34-2.31,10.81-2.32,2.78,0,3.76-.07,3.76-.22s-.21-.31-2.21-.65a21.85,21.85,0,0,0-3.54-.25l-1.93,0-.12-2.66c-.06-1.46,0-7,0-12.31.15-8.95.1-13.29-.16-13.44-.05,0-1.1-.24-2.34-.45-2.95-.5-18.2-3.57-18.32-3.69-.56-.56.14-10.46,1.18-16.57.52-3.09,1.85-9.41,2.4-11.47l.16-.62,1.26,0a11.55,11.55,0,0,0,8.26-4.67c1.49-2.16,2.22-4.43,2.63-8.21a58.47,58.47,0,0,0-.28-13.43c-.29-2.73-.48-5-.42-5.08s.2,0,.32.09c.55.55,2.81,0,3.72-.83a14,14,0,0,0,2.12-3.38c.83-1.83,1.61-5.75,1.19-6-.08,0-.45.48-.81,1.17-2.31,4.38-6.46,8-9.91,8.57a3.6,3.6,0,0,1-3.09-.61c-1.39-1-6.17-6.57-7.44-8.72a15.23,15.23,0,0,1-1.51-4c0-.16.39-.25,1.43-.3a6.07,6.07,0,0,0,5.44-3.41,4.68,4.68,0,0,0,.46-2.53V90.78l.64-.18c.63-.17.63-.17,1.17.66a6,6,0,0,0,6.4,2.66,5.91,5.91,0,0,0,4.68-6c0-1.53-.15-1.38,2.28-2.18,1.9-.63,2.16-.76,2.16-1.08s.64-.82,1.21-.82c.95,0,1.6,1.36,1.6,3.36a8.25,8.25,0,0,1-1.69,5.22l-.45.54.44,1.39c.25.77.64,2.18.89,3.16.6,2.39,1.53,5.61,3.37,11.66.84,2.78,1.53,5.22,1.52,5.42,0,.66-1.5,3.19-4.8,8.1-4.52,6.75-6.36,9.57-6.86,10.54s-.46,1-1.45-1.33a6.61,6.61,0,0,0-.87-1.67c-.21,0-.08.52.77,3,1,2.79,1,2.79,3.13-.43.93-1.38,2.44-3.55,3.36-4.83a99.48,99.48,0,0,0,7.62-12c.38-.84.67-1.27.87-1.27.5,0,9.54,2.22,12.36,3,5.42,1.57,10.46,3.78,13.13,5.76,1.15.85,1.55,1,1.55.68s-1.88-2.14-3.28-3.06l-1.51-1a12.33,12.33,0,0,1,.13-1.36c.31-2.5-.31-5-2.24-9A44.93,44.93,0,0,0,506,98.49a25.84,25.84,0,0,1-6-9.66c-.24-.71-.79-3-1.24-5.09a35.27,35.27,0,0,0-2.53-8.28c-2.68-5.33-7.25-10.39-10.92-12.1A12.78,12.78,0,0,0,479.36,62c-2.23,0-3,.19-6.1,1.58a10.72,10.72,0,0,1-1.76.69,14.43,14.43,0,0,1,2.64-3.09c.48-.41.84-.8.8-.87s-.32-.13-.63-.13-.75.21-1.59,1.08a16.54,16.54,0,0,0-1.88,2.6c-.76,1.36-.87,1.48-1.12,1.25a8.45,8.45,0,0,0-1.65-.81c-4.25-1.71-9.48,0-12.51,4.12-2.28,3.08-4,8.28-4.47,13.83a147.47,147.47,0,0,0,.08,15.7c.31,6.35.36,15.45.11,18.28-.1,1.1-.3,3-.45,4.23a46,46,0,0,0-.28,9.14,19.74,19.74,0,0,0,3.34,8.17l.74,1-.73,2.36c-1.22,3.92-2.6,9.15-3.42,12.9-.43,1.95-1,4.53-1.3,5.71s-.59,2.58-.68,3.11c-.38,2.22-.85,5.16-1,6l-.12.92-.71-.11c-.4-.07-3.24-.61-6.35-1.23-5.26-1-5.66-1.09-6.12-.85-.27.14-7.17,2.75-15.33,5.79s-19.68,7.38-25.61,9.64-11.22,4.23-11.76,4.4a2.69,2.69,0,0,0-1.06.51,33.54,33.54,0,0,0,.25,3.38c.18,1.75.41,5.7.5,8.79s.29,8.47.44,12,.33,8.47.4,11a48.2,48.2,0,0,0,.26,4.87.76.76,0,0,0,.62.22c.27,0,2.57.62,5.12,1.39s9.29,2.71,15,4.33,12.36,3.52,14.83,4.24c4.95,1.43,5.76,1.58,6.06,1.16.11-.15,5-2,10.86-4.15,18.92-6.89,28.74-10.45,30.42-11Zm5.68-129.92a4.72,4.72,0,0,1-4.46-2.78,5.14,5.14,0,0,1,2.2-6.65,5.2,5.2,0,0,1,4.45.28,4.33,4.33,0,0,1,2.59,4.2A4.67,4.67,0,0,1,474.74,92.85Zm-15.69-8.07A12.05,12.05,0,0,0,464.69,79a17.18,17.18,0,0,0,1.57-4.38,3.22,3.22,0,0,1,.1-.75c.1-.38.12-.37.58.25a13.22,13.22,0,0,0,1.42,1.54A19.42,19.42,0,0,0,475,79.53a7.35,7.35,0,0,0,2.76.38,11.73,11.73,0,0,0,2.06-.17c.5-.16.51-.15,1.32,1.49a11.11,11.11,0,0,0,1.6,2.47,10.13,10.13,0,0,1,.79.88s-.13.11-.3.16-.81.28-1.45.52l-1.14.43-.62-.93a5.69,5.69,0,0,0-7.49-2,6.56,6.56,0,0,0-3,2.87,4.74,4.74,0,0,0-.46,2.4l0,1.55-.58.3-.59.3-.32-.71c-.9-2-3-3.15-5.68-3.14a4.16,4.16,0,0,0-2.42.53l-1.05.53-.18-.71a8.37,8.37,0,0,0-.31-1C457.8,85.45,458,85.28,459.05,84.78Zm-1.47,5.1.47-1,.16.74c.1.45.26.73.41.73s.22-.2.13-1l-.12-1,.64-.39a5.24,5.24,0,0,1,4.24-.64,6.68,6.68,0,0,1,3,2.76,5.39,5.39,0,0,1-.08,4.36,4.87,4.87,0,0,1-5.48,2.66c-.6-.17-.63-.23-.92-1.45a6.37,6.37,0,0,0-1.48-2.94c-.29-.18-.23.21.22,1.35a10.88,10.88,0,0,1,.54,1.73l.12.67-.39-.26a5.46,5.46,0,0,1-1.81-2.67A4.79,4.79,0,0,1,457.58,89.88Zm-9.13,79.06a60.15,60.15,0,0,1,.93-6.56c.86-4.22,5-19.46,6.11-22.49.07-.17.26-.07.73.37a15.91,15.91,0,0,0,1.24,1,14.09,14.09,0,0,0,5.8,2.2c.22,0,.43.06.48.15a42.59,42.59,0,0,1-1.19,4.35c-1.45,4.83-4.69,17.11-5.51,20.94-.41,1.88-.63,2.58-.8,2.56s-2-.36-4.05-.77l-3.8-.74ZM435.4,168c.13,0,2.85.55,6,1.22,5.8,1.22,14.75,3.08,28.89,6,4.17.86,8,1.67,8.48,1.78l.88.21-3.26,1.25-3.27,1.25-1.5-.28c-2.37-.44-7.19-1.43-19.7-4-6.4-1.32-12.75-2.63-14.1-2.89l-2.45-.47v-1.23a18.69,18.69,0,0,0-.12-2C435.19,168.17,435.22,168,435.4,168Zm-12.35,50.65c0,10.83-.05,19.74-.13,19.81S417,236.94,410,234.93c-14-4-18.55-5.25-23.4-6.54l-3.19-.85-.2-2.91c-.16-2.28-.91-18.11-1.17-24.73,0-.62-.14-2.59-.24-4.4-.37-6.06-.37-5.89-.07-6.19a.88.88,0,0,1,.5-.28c.11,0,2.56.57,5.44,1.27,22.31,5.44,31.88,7.78,33.51,8.19l1.89.47Zm-6-21.74c-6.31-1.53-18-4.4-23.61-5.79l-3.26-.8,11.71-4.54c13.73-5.33,26-10.18,32.23-12.77,1.41-.58,1.23-.59,5.61.35,1.75.38,8.59,1.82,15.17,3.19,13.94,2.9,16.8,3.54,16.61,3.72s-3.55,1.41-7.72,3-10.35,3.9-13.72,5.2-8.45,3.24-11.29,4.31-7.19,2.73-9.64,3.69a54.59,54.59,0,0,1-5.26,1.84C423.21,198.34,421.86,198.07,417,196.9ZM468.4,63.25c-1.18-1.19-1.48-1.74-1.14-2.09.18-.18,1.1,0,1.57.39a2.78,2.78,0,0,1,1.17,2C470.14,64.75,469.83,64.7,468.4,63.25ZM469,98.33l-.32.64.87.36c.65.27.85.44.8.66s-.22.3-.93.26c-1.19-.07-1.94-.35-2.07-.76-.07-.24.09-.66.51-1.33a8.29,8.29,0,0,0,1.32-4.3,4.23,4.23,0,0,1,.12-1.31c.54-.53.77,2.56.31,4.14A12.84,12.84,0,0,1,469,98.33Zm8.56.86c.29.24.05.9-.82,2.35-1,1.67-1.92,2.31-2.49,1.74-.23-.23-.16-.36.66-1.19a16.14,16.14,0,0,0,1.67-2C477.19,99.19,477.37,99,477.57,99.19Zm32.57,25.51c.16,0,.27,0,.27.1s-.66,1.26-1.46,2.66c-3.81,6.64-5.44,12-5.44,17.94,0,1.07-.06,1.55-.2,1.55s-.17-.76-.08-2.9a43.7,43.7,0,0,1,1.23-9.07,36.86,36.86,0,0,1,4.05-8.19A8.59,8.59,0,0,1,510.14,124.7Zm32.79,52c2.14-1,3.18-2,3.18-3.15,0-.82-3-8.86-5.1-13.83a231.66,231.66,0,0,0-11.58-23.66c-1.19-2-4.86-7.7-5.9-9.14-.58-.81-1-1.07-1-.59a.52.52,0,0,0,.24.4c.65.38,5,7.81,8.34,14.19,3.14,6,8.13,17.32,10.86,24.58.84,2.24,2.46,7,2.46,7.19a6.23,6.23,0,0,1-1.86.14,30.29,30.29,0,0,0-6.07.62,37,37,0,0,0-15.64,8.15c-.83.81-1.22.87-2,.33s-1.76-2.74-4.78-9.83c-1.82-4.27-8.8-19.87-9.32-20.83-.19-.34-.71-.43-.71-.12,0,.14.65,1.8,1.45,3.68s3.79,9.75,6.65,17.48l5.21,14.06L513,190.64a64.54,64.54,0,0,1-7.65,6.75c-6.9,5.18-10.94,7.47-14.16,8-1.68.29-1.38.57.5.46,3.6-.2,7.16-2,14-7.09,3.31-2.47,7.9-5.69,9.71-6.81a55.16,55.16,0,0,1,7.81-3.84c2.78-1.09,3-1.2,2.92-1.52s-.9-.55-2.28-.51l-1.17,0-.92-1.62a11.6,11.6,0,0,1-.93-1.85c0-.28,2.59-2,4.18-2.7a26.53,26.53,0,0,1,8.83-2.32c2.69-.22,6.17.21,6.79.83.39.39,1.59,5.26,2.25,9.16a53,53,0,0,1,.87,9.26,6.05,6.05,0,0,0,.18,2.12c.82,0,.65-7.9-.29-13.19-.33-1.86-1.32-6.22-1.69-7.42a8,8,0,0,1-.27-1A5.24,5.24,0,0,1,542.93,176.69Zm-1.63-.42a.22.22,0,0,1-.19-.24,4.79,4.79,0,0,0-.43-1.07c-.24-.47-.44-.86-.44-.88A14.27,14.27,0,0,1,544,174c.39.11.38.13-.26.63A12,12,0,0,1,541.3,176.27Zm1.5,23.9c.13.6-3.18,3.19-6.35,5-.81.46-2.31,1.22-3.36,1.7-1.73.79-1.9.91-1.85,1.3a49.38,49.38,0,0,0,2.3,7c.48,1.1.91,2.12,1,2.23s-.08.22-.4.22-.57-.15-1.27-1.46l-.78-1.45-.69.07c-.68.08-10.81.58-19,1a23.68,23.68,0,0,0-4.83.44c-.34.14-2.79.91-5.45,1.71a93.82,93.82,0,0,0-17.36,6.61,40.75,40.75,0,0,1-13.75,4,25.28,25.28,0,0,1-7.16-.53c-2.62-.54-3-.67-3-1s.7-.31,3.71.21c4.7.81,8,.57,13.34-1,2.71-.77,3.85-1.25,8.52-3.52,1.68-.81,3.1-1.48,3.14-1.48s1.18-.46,2.5-1c5.28-2.25,15.68-5.95,25.7-9.15,12.56-4,17.64-6.08,21.9-8.93,1.47-1,2.79-1.9,2.94-2S542.75,199.91,542.8,200.17ZM474.56,88a1.73,1.73,0,0,1,0,1.62c-.34.41-.82.28-1.19-.33a1.12,1.12,0,0,1,0-1.45A.78.78,0,0,1,474.56,88Zm-12.42,3.31a.69.69,0,0,1,1.16.21c.26.58.24,1-.06,1.28C462.65,93.29,461.63,91.91,462.14,91.31Z"/><path class="cls-1" d="M407.56,92.36l-7.8,4.44-5-.14-5-.14,6.48-4c9.13-5.7,16.35-10,22.27-13.3l5.09-2.83,4.74-.09c2.6,0,5.13-.11,5.61-.13.77,0,1.5.17,1.29.35-.05,0-1.83,1.07-4,2.28s-6.59,3.76-9.91,5.69S411.86,89.93,407.56,92.36Zm6.26-12.2,6.36-3.73-6.54,0-39.71.22c-18.23.1-33.17.24-33.2.32a41.18,41.18,0,0,0,4.45,1.82c9.3,3.51,25.18,10,36.59,14.84,3.35,1.43,6.15,2.6,6.25,2.6s3-1.85,6.45-4.12C401.91,87.25,405.35,85.12,413.82,80.16Zm16.47,9.48L436.06,88l.05-5a49.38,49.38,0,0,0-.09-5c-.07,0-1.37.71-2.89,1.57s-5.83,3.22-9.57,5.26c-5.62,3.06-16.11,8.85-20.61,11.37l-1,.58h5.57L412,95.24C417.14,93.46,422.13,91.94,430.29,89.64ZM371.91,92c-3.71-1.54-9.17-3.78-12.16-5s-6.85-2.8-8.57-3.52c-2.66-1.1-6.49-2.65-10.09-4.09l-.83-.32v.9c0,.5-.07,2.8-.16,5.13-.4,10.52-.4,10.79-.12,11.07s2.26.28,17.65.3c9.55,0,19.21.06,21.43.13a37.48,37.48,0,0,0,4,0s-1-.48-2.24-1S375.62,93.49,371.91,92Zm64.4,2.2c0-1.54-.06-3.12-.12-3.51l-.13-.71-8.53,2.29c-4.69,1.25-10.4,2.82-12.67,3.48l-4.13,1.2,10.6.1c5.91.06,11.38.19,12.37.31,1.55.17,1.83.16,2.2-.08S436.32,96.94,436.31,94.15Z"/></g></g></svg>